<svg width="200" height="200" viewBox="0 0 200 200" fill="none" xmlns="http://www.w3.org/2000/svg">
<circle cx="100" cy="100" r="100" fill="#DC9547"/>
<path d="M95.3412 165.106C94.5032 164.553 93.7831 163.839 93.2225 163.006C92.6619 162.173 92.2719 161.238 92.075 160.253C91.8781 159.269 91.8782 158.255 92.0754 157.271C92.2725 156.286 92.6627 155.35 93.2235 154.518C95.4497 151.468 96.3801 147.662 95.8118 143.929C95.3412 140.871 93.2235 137.106 88.2823 133.341C87.8118 133.106 86.6353 132.165 84.9882 131.224C82.734 129.76 80.6086 128.107 78.6353 126.282C72.6698 120.93 68.3455 113.995 66.1647 106.282V106.047C64.5931 99.7881 64.7952 93.2152 66.7484 87.0647C68.7017 80.9142 72.3288 75.4289 77.2235 71.2235C78.1647 70.5176 77.6941 70.9882 77.2235 71.2235C81.3352 67.7827 86.1558 65.2921 91.3412 63.9294C93.7982 63.2836 96.3302 62.9671 98.8706 62.9882C101.878 62.9393 104.88 63.2553 107.812 63.9294H108.047C111.308 64.6353 114.469 65.7417 117.459 67.2235C126.99 71.9014 135.413 78.5595 142.165 86.7529C142.848 87.5071 143.374 88.3895 143.712 89.3489C144.051 90.3083 144.195 91.3255 144.137 92.3413C144.079 93.357 143.819 94.351 143.373 95.2654C142.927 96.1798 142.303 96.9963 141.539 97.6673C140.774 98.3384 139.883 98.8507 138.919 99.1742C137.954 99.4978 136.935 99.6263 135.92 99.5521C134.905 99.478 133.916 99.2027 133.008 98.7423C132.101 98.282 131.294 97.6457 130.635 96.8706C125.371 90.3916 118.796 85.0993 111.341 81.3412C109.289 80.3892 107.165 79.6024 104.988 78.9882H104.753C103.075 78.4929 101.316 78.333 99.5765 78.5176C98.231 78.5443 96.8914 78.7019 95.5765 78.9882C92.6915 79.6431 90.0199 81.0194 87.8118 82.9882C87.7809 82.9882 87.7503 82.9943 87.7217 83.0061C87.6932 83.018 87.6672 83.0353 87.6454 83.0571C87.6235 83.079 87.6062 83.1049 87.5944 83.1335C87.5825 83.162 87.5765 83.1926 87.5765 83.2235C85.1917 85.2537 83.3433 87.8396 82.1943 90.753C81.0454 93.6665 80.6311 96.818 80.9882 99.9294L81.4588 102.518L82.1647 104.4C83.7632 108.563 86.3467 112.277 89.6941 115.224C92.4342 117.484 95.3449 119.529 98.4 121.341C114.4 133.341 115.812 149.812 107.106 163.224C105.63 164.795 103.674 165.832 101.545 166.173C99.4158 166.514 97.234 166.138 95.3412 165.106ZM123.812 152.4C124.282 130.988 115.812 114.753 96.2823 104.165C94.5038 103.197 93.1824 101.563 92.6088 99.6217C92.0351 97.6802 92.2563 95.5903 93.2235 93.8118C94.1908 92.0332 95.8249 90.7118 97.7665 90.1382C99.708 89.5645 101.798 89.7857 103.576 90.7529C128.518 104.165 139.812 125.812 139.341 152.871C139.348 153.881 139.15 154.883 138.76 155.815C138.369 156.748 137.793 157.591 137.068 158.295C136.342 158.998 135.481 159.548 134.538 159.909C133.594 160.271 132.587 160.438 131.576 160.4C129.498 160.333 127.526 159.461 126.078 157.969C124.629 156.476 123.817 154.48 123.812 152.4ZM63.8118 148.235C52.6223 140.283 44.3553 128.874 40.2823 115.765C39.6895 113.799 39.9018 111.678 40.8726 109.869C41.8434 108.06 43.4931 106.71 45.4588 106.118C47.4245 105.525 49.5452 105.737 51.3544 106.708C53.1636 107.679 54.513 109.328 55.1059 111.294C58.1192 121.179 64.3255 129.785 72.7529 135.765C74.4233 136.962 75.5567 138.767 75.9088 140.791C76.2609 142.816 75.8035 144.898 74.6353 146.588C73.3652 148.168 71.5484 149.214 69.5442 149.519C67.54 149.824 65.4944 149.366 63.8118 148.235ZM146.4 122.353C144.988 118.824 143.341 115.294 141.694 111.765C141.195 110.848 140.886 109.84 140.786 108.8C140.686 107.761 140.798 106.713 141.114 105.718C141.43 104.723 141.944 103.802 142.625 103.011C143.306 102.22 144.14 101.574 145.077 101.114C146.014 100.653 147.034 100.387 148.077 100.331C149.119 100.275 150.162 100.431 151.143 100.788C152.124 101.146 153.022 101.698 153.784 102.412C154.546 103.125 155.156 103.986 155.576 104.941C157.459 108.941 159.341 112.941 160.988 116.941C161.37 117.881 161.557 118.889 161.537 119.903C161.517 120.918 161.292 121.917 160.873 122.842C160.455 123.766 159.853 124.596 159.105 125.28C158.356 125.965 157.476 126.49 156.518 126.824C154.577 127.467 152.467 127.366 150.597 126.54C148.726 125.713 147.231 124.221 146.4 122.353ZM44.5176 99.7647C43.5124 99.6592 42.5378 99.356 41.6501 98.8726C40.7624 98.3892 39.979 97.7352 39.3449 96.948C38.7107 96.1608 38.2385 95.2561 37.9552 94.2858C37.6719 93.3155 37.5832 92.2988 37.6941 91.2941C38.5716 82.2208 41.4656 73.4582 46.1647 65.647C49.8357 59.2781 54.7105 53.684 60.5176 49.1765C67.534 43.3297 75.8154 39.1971 84.7059 37.1059C93.7963 34.8818 103.269 34.7206 112.43 36.6342C121.591 38.5478 130.207 42.4876 137.647 48.1647C138.45 48.7827 139.124 49.5529 139.63 50.4312C140.136 51.3096 140.463 52.279 140.595 53.2841C140.726 54.2891 140.658 55.3102 140.394 56.2889C140.13 57.2676 139.677 58.1848 139.059 58.9882C138.441 59.7916 137.671 60.4654 136.792 60.9711C135.914 61.4769 134.944 61.8046 133.939 61.9357C132.934 62.0668 131.913 61.9987 130.935 61.7352C129.956 61.4717 129.039 61.018 128.235 60.4C119.902 53.9134 109.612 50.4504 99.0529 50.5787C88.4935 50.7069 78.2909 54.4188 70.1176 61.1059C65.8411 64.6316 62.183 68.8464 59.2941 73.5765C55.7887 79.4648 53.6199 86.0515 52.9412 92.8706C52.6448 94.8553 51.6154 96.6569 50.056 97.9201C48.4967 99.1832 46.5207 99.8162 44.5176 99.6941V99.7647ZM145.459 74.1176C145.224 73.647 144.753 73.4118 144.518 72.9412C143.082 71.5059 142.276 69.5592 142.276 67.5294C142.276 65.4996 143.082 63.5529 144.518 62.1176C145.953 60.6823 147.9 59.876 149.929 59.876C151.959 59.876 153.906 60.6823 155.341 62.1176C156.183 62.9263 156.969 63.7911 157.694 64.7059C158.327 65.503 158.794 66.4193 159.067 67.4003C159.339 68.3813 159.411 69.407 159.28 70.4165C159.148 71.4261 158.815 72.3989 158.3 73.2772C157.785 74.1555 157.099 74.9214 156.282 75.5294C154.642 76.7459 152.591 77.2719 150.568 76.9948C148.545 76.7178 146.711 75.6597 145.459 74.047V74.1176Z" fill="white"/>
</svg>
