<?xml version="1.0" encoding="UTF-8"?>
<!--https://github.com/muchdogesec/stix2icons/-->
<svg xmlns="http://www.w3.org/2000/svg" viewBox="0 0 85 85" id="artifact">
	<path style="fill:rgb(149,229,250)" d="m 29.584498,54.260655 c 0.531421,0.591837 1.293546,0.931093 2.090685,0.931093 0.695511,0 1.36363,-0.256848 1.880608,-0.722351 1.152145,-1.036786 1.245527,-2.819235 0.208741,-3.972716 l -7.578085,-8.419252 7.578085,-8.420485 c 1.036786,-1.152145 0.943404,-2.934595 -0.208741,-3.97138 v -0.0014 c -0.558175,-0.502532 -1.28327,-0.762124 -2.028919,-0.716761 -0.751152,0.03977 -1.440537,0.368042 -1.942374,0.925505 l -9.272017,10.303304 c -0.964669,1.072408 -0.964669,2.690056 0,3.763974 z" />
	<path style="fill:rgb(149,229,250)" d="m 54.593461,29.892898 c -1.036698,-1.150722 -2.817101,-1.24544 -3.971293,-0.207319 -1.152145,1.036785 -1.245527,2.819234 -0.208741,3.972715 l 7.578085,8.419164 -7.578085,8.420573 c -1.036786,1.152145 -0.943404,2.934595 0.208741,3.972803 0.516978,0.46408 1.185112,0.720929 1.880608,0.720929 0.797124,0 1.559264,-0.339242 2.090685,-0.929671 l 9.272017,-10.303314 c 0.964669,-1.072495 0.964669,-2.690144 0,-3.762551 z" />
	<path style="fill:rgb(149,229,250)" d="m 47.016087,22.010656 -0.0027,-0.0013 c -1.507123,-0.365294 -3.030764,0.561633 -3.398719,2.062514 l -8.512634,34.670944 c -0.370074,1.505133 0.554095,3.03072 2.061174,3.401506 0.219106,0.05352 0.444948,0.08098 0.670877,0.08098 1.297713,0 2.420274,-0.880229 2.729221,-2.142159 L 49.07594,25.412162 c 0.370074,-1.505134 -0.55411,-3.030721 -2.059853,-3.401506 z" />
</svg>