<svg width="200" height="200" viewBox="0 0 200 200" fill="none" xmlns="http://www.w3.org/2000/svg">
<path d="M100 200C155.228 200 200 155.228 200 100C200 44.7715 155.228 0 100 0C44.7715 0 0 44.7715 0 100C0 155.228 44.7715 200 100 200Z" fill="#2277B5"/>
<path fill-rule="evenodd" clip-rule="evenodd" d="M113.812 36.3765L163.623 86.0706C165.459 87.8963 166.915 90.0668 167.909 92.4573C168.903 94.8478 169.415 97.4111 169.415 100C169.415 102.589 168.903 105.152 167.909 107.543C166.915 109.933 165.459 112.104 163.623 113.929L113.812 163.624C111.988 165.458 109.819 166.914 107.431 167.908C105.042 168.901 102.481 169.413 99.894 169.413C97.3071 169.413 94.7457 168.901 92.3571 167.908C89.9686 166.914 87.8001 165.458 85.9764 163.624L36.3764 113.929C34.5409 112.104 33.0844 109.933 32.0905 107.543C31.0966 105.152 30.585 102.589 30.585 100C30.585 97.4111 31.0966 94.8478 32.0905 92.4573C33.0844 90.0668 34.5409 87.8963 36.3764 86.0706L85.9764 36.3765C87.8001 34.5417 89.9686 33.0857 92.3571 32.0921C94.7457 31.0985 97.3071 30.587 99.894 30.587C102.481 30.587 105.042 31.0985 107.431 32.0921C109.819 33.0857 111.988 34.5417 113.812 36.3765V36.3765ZM88.7764 63.1059L63.0352 88.9882C62.036 88.7922 61.0174 88.7132 59.9999 88.7529C57.7994 88.9125 55.6956 89.7211 53.9547 91.0766C52.2138 92.432 50.9141 94.2733 50.2199 96.3676C49.5257 98.4619 49.4683 100.715 50.0549 102.842C50.6415 104.969 51.8458 106.874 53.5153 108.316C55.1849 109.759 57.2448 110.673 59.4344 110.945C61.6239 111.216 63.8448 110.832 65.816 109.841C67.7873 108.85 69.4203 107.297 70.5085 105.377C71.5966 103.458 72.0911 101.259 71.9293 99.0588C71.889 98.1866 71.7307 97.3239 71.4587 96.4941L94.1176 73.6471V130.565C92.3059 131.638 90.8398 133.208 89.8932 135.089C88.9465 136.969 88.5589 139.082 88.7764 141.176C88.9948 144.122 90.3744 146.86 92.6115 148.788C93.7193 149.743 95.0043 150.47 96.3931 150.929C97.7819 151.387 99.2474 151.567 100.706 151.459C102.164 151.351 103.587 150.956 104.893 150.298C106.199 149.64 107.363 148.731 108.318 147.624C109.272 146.516 110 145.231 110.458 143.842C110.916 142.453 111.096 140.988 110.988 139.529C110.988 138.824 110.753 138.118 110.753 137.647L136.965 111.129C138.308 111.634 139.755 111.795 141.176 111.6C143.377 111.44 145.481 110.632 147.222 109.276C148.962 107.921 150.262 106.08 150.956 103.985C151.651 101.891 151.708 99.6379 151.121 97.511C150.535 95.3841 149.331 93.4789 147.661 92.0366C145.991 90.5942 143.932 89.6795 141.742 89.408C139.552 89.1366 137.332 89.5207 135.36 90.5117C133.389 91.5028 131.756 93.0562 130.668 94.9755C129.58 96.8948 129.085 99.0937 129.247 101.294C129.21 101.701 129.292 102.109 129.482 102.471L105.623 126.118V71.5294C107.432 70.469 108.898 68.9125 109.849 67.0442C110.8 65.176 111.195 63.0743 110.988 60.9882C110.759 58.0449 109.378 55.311 107.144 53.381C104.91 51.4511 102.004 50.4812 99.0587 50.6824C96.0849 51.0539 93.3649 52.5464 91.454 54.8552C89.5431 57.164 88.5854 60.115 88.7764 63.1059V63.1059Z" fill="white"/>
</svg>
