<?xml version="1.0" encoding="UTF-8"?>
<!--https://github.com/muchdogesec/stix2icons/-->
<svg xmlns="http://www.w3.org/2000/svg" viewBox="0 0 85 85" id="autonomous-system">
   <path style="fill:rgb(255,255,255)" d="m 32.112037,35.062716 c 1.628959,0 3.054299,-1.42534 3.054299,-3.054299 0,-1.628959 -1.42534,-3.054299 -3.054299,-3.054299 -1.628959,0 -3.054299,1.42534 -3.054299,3.054299 0,1.628959 1.42534,3.054299 3.054299,3.054299 z m 6.108597,-14.253394 c 1.832579,0 3.054299,0 4.072398,0.20362 1.0181,0.20362 2.0362,0.61086 2.850679,1.221719 1.0181,0.61086 1.832579,1.42534 3.054299,2.850679 l 0.20362,0.20362 14.457013,14.457014 c 1.832579,1.832579 2.850679,4.072398 2.850679,6.719457 0,2.443439 -1.0181,4.886877 -2.850679,6.719457 l -9.977375,9.977375 c -1.832579,1.832579 -4.072398,2.850679 -6.719457,2.850679 -2.647059,0 -4.886878,-1.0181 -6.719457,-2.850679 L 24.98534,48.70525 24.78172,48.50163 C 23.56,47.27991 22.745521,46.465431 21.931041,45.447331 c -0.61086,-0.81448 -1.0181,-1.832579 -1.221719,-2.850679 0.203619,-1.628959 0.203619,-2.850678 0.203619,-4.479638 v -0.20362 -2.036199 c 0,-2.239819 0,-4.072398 0.20362,-5.497737 0.20362,-1.42534 0.40724,-2.850679 1.0181,-4.072398 0.81448,-1.83258 2.443439,-3.461539 4.276018,-4.479638 1.221719,-0.61086 2.443439,-0.81448 4.072399,-1.0181 h 5.497737 2.036199 z" />
</svg>