<?xml version="1.0" encoding="UTF-8"?>
<!--https://github.com/muchdogesec/stix2icons/-->
<svg width="200" height="200" xmlns="http://www.w3.org/2000/svg" viewBox="0 0 85 85" id="bank-account">
	<path style="fill:rgb(255,255,255)" d="M 54.573439,21.809322 H 28.323438 c -3.795714,0 -6.874285,3.078571 -6.874285,6.875714 v 26.25 c 0,3.795715 3.078571,6.874286 6.874285,6.874286 h 26.250001 c 3.797143,0 6.875714,-3.078571 6.875714,-6.874286 v -26.25 c 0,-3.797143 -3.078571,-6.875714 -6.875714,-6.875714 z m -6.411429,24.894286 2.768572,2.768571 c 0.502857,0.502857 0.502857,1.317143 0,1.818572 -0.251429,0.251428 -0.581429,0.375714 -0.91,0.375714 -0.328572,0 -0.658572,-0.125714 -0.91,-0.377143 L 46.34201,48.520751 c -1.457143,1.061428 -3.168571,1.618571 -4.894286,1.618571 -1.725714,0 -3.437142,-0.557143 -4.894285,-1.618571 l -2.768572,2.768571 c -0.248571,0.252857 -0.578571,0.377143 -0.907143,0.377143 -0.328571,0 -0.658571,-0.125714 -0.91,-0.377143 -0.502857,-0.502857 -0.502857,-1.317143 0,-1.818571 l 2.768572,-2.768572 c -2.122857,-2.912857 -2.122857,-6.874286 0,-9.787143 l -2.768572,-2.768571 c -0.502857,-0.502857 -0.502857,-1.317143 0,-1.818572 0.502858,-0.501428 1.317143,-0.502857 1.818572,0 l 2.768571,2.768572 c 2.912857,-2.121429 6.874286,-2.121429 9.787143,0 l 2.768572,-2.768572 c 0.502857,-0.502857 1.317142,-0.502857 1.818571,0 0.501429,0.502858 0.502857,1.317143 0,1.818572 l -2.768571,2.768571 c 2.124285,2.914286 2.124285,6.874286 0.0014,9.788572 z" />
	<path style="fill:rgb(255,255,255)" d="m 41.449153,36.047893 c -1.475714,0 -2.952857,0.561429 -4.077143,1.685715 -2.247143,2.247143 -2.247143,5.905714 0,8.152857 2.245714,2.248571 5.907143,2.248571 8.152857,0 2.247143,-2.247143 2.247143,-5.905714 0,-8.152857 -1.122857,-1.125715 -2.6,-1.685715 -4.075714,-1.685715 z" />
</svg>