<?xml version="1.0" encoding="UTF-8"?>
<!--https://github.com/muchdogesec/stix2icons/-->
<svg xmlns="http://www.w3.org/2000/svg" viewBox="0 0 85 85" id="bank-card">
  <path style="fill:rgb(255,255,255)" d="M 61.867083,27.353899 H 23.471988 c -1.821009,0 -3.302496,1.481487 -3.302496,3.302497 v 23.836773 c 0,1.82101 1.481487,3.3025 3.302496,3.3025 h 38.395007 c 1.821098,0 3.302497,-1.48149 3.302497,-3.3025 V 30.656396 c 8.8e-5,-1.82101 -1.481399,-3.302497 -3.302409,-3.302497 z m -27.855142,19.82104 h 4.460897 c 0.535255,0 0.968996,0.43383 0.968996,0.969 0,0.53517 -0.433829,0.969 -0.968996,0.969 h -4.460897 c -0.535255,0 -0.968996,-0.43383 -0.968996,-0.969 0,-0.53517 0.433829,-0.969 0.968996,-0.969 z m -9.651816,-9.719575 c 0,-0.535255 0.433829,-0.968996 0.968996,-0.968996 h 5.805012 c 0.535255,0 0.968996,0.433829 0.968996,0.968996 v 4.197049 c 0,0.535255 -0.433829,0.968996 -0.968996,0.968996 h -5.805012 c -0.535255,0 -0.968996,-0.433829 -0.968996,-0.968996 z m 0.968996,9.719575 h 4.460897 c 0.535256,0 0.968997,0.43383 0.968997,0.969 0,0.53517 -0.433829,0.969 -0.968997,0.969 h -4.460897 c -0.535255,0 -0.968996,-0.43383 -0.968996,-0.969 0,-0.53517 0.433917,-0.969 0.968996,-0.969 z m 15.925373,6.24702 H 25.329121 c -0.535255,0 -0.968996,-0.43383 -0.968996,-0.969 0,-0.53516 0.433829,-0.96899 0.968996,-0.96899 h 15.925373 c 0.535255,0 0.968996,0.43383 0.968996,0.96899 0,0.53517 -0.433741,0.969 -0.968996,0.969 z m 5.901164,-4.30902 h -4.460897 c -0.535255,0 -0.968996,-0.43383 -0.968996,-0.969 0,-0.53517 0.433829,-0.969 0.968996,-0.969 h 4.460897 c 0.535255,0 0.968996,0.43383 0.968996,0.969 0,0.53517 -0.433741,0.969 -0.968996,0.969 z m 8.68282,0 H 51.37758 c -0.535255,0 -0.968996,-0.43383 -0.968996,-0.969 0,-0.53517 0.433829,-0.969 0.968996,-0.969 h 4.460898 c 0.535255,0 0.968996,0.43383 0.968996,0.969 0,0.53517 -0.433917,0.969 -0.968996,0.969 z m 4.171473,-14.155344 h -10.52132 c -0.535255,0 -0.968996,-0.433828 -0.968996,-0.968996 0,-0.535167 0.433829,-0.968996 0.968996,-0.968996 h 10.52132 c 0.535255,0 0.968996,0.433829 0.968996,0.968996 0,0.535168 -0.433917,0.968996 -0.968996,0.968996 z" />
</svg>