<svg width="200" height="200" viewBox="0 0 200 200" fill="none" xmlns="http://www.w3.org/2000/svg">
<circle cx="100" cy="100" r="100" fill="#206674"/>
<path d="M49 134.365V106.904H69.6347V93.0959H83.4429V106.904H104.078V120.712H90.2694V141.347H104.078V155.155H69.6347C57.9986 155 49 146.001 49 134.365Z" fill="white"/>
<path d="M49 65.6347C49 53.9986 57.9986 45 69.6347 45H103.922V65.6347H117.731V79.4429H103.922V100.078H90.2694V86.2694H62.8082V100.078H49V65.6347Z" fill="white"/>
<path d="M110.904 45H138.365C150.001 45 159 53.9986 159 65.6347V99.9224H145.192V113.731H124.712V99.9224H110.904V86.2694H124.712V58.8082H110.904V45Z" fill="white"/>
</svg>
