<svg width="200" height="200" viewBox="0 0 200 200" fill="none" xmlns="http://www.w3.org/2000/svg">
<path d="M100 200C155.228 200 200 155.228 200 100C200 44.7715 155.228 0 100 0C44.7715 0 0 44.7715 0 100C0 155.228 44.7715 200 100 200Z" fill="#50B682"/>
<path fill-rule="evenodd" clip-rule="evenodd" d="M37.647 140.306V109.012H62.1647V91.2236H75.4823V109.012H98.8235V122.353H83.1058V147.882H98.8235V162.353H59.5529C53.7263 162.328 48.1475 159.993 44.0407 155.859C39.9339 151.726 37.6345 146.133 37.647 140.306V140.306ZM124.518 112.329V99.0589H108.8V83.4118H124.518V49.9765H108.8V37.8824H140.212C146.062 37.9008 151.669 40.2266 155.814 44.3545C159.96 48.4825 162.31 54.0793 162.353 59.9294V99.0589H145.694V112.329H124.518ZM37.647 99.0589V59.6942C37.6904 53.844 40.04 48.2472 44.1856 44.1192C48.3312 39.9913 53.9379 37.6655 59.7882 37.6471H99.0588V59.9294H114.753V73.2H99.0588V98.8236H85.7176V81.0353H52.1647V98.8236H37.647V99.0589Z" fill="white"/>
</svg>
