<svg width="200" height="200" viewBox="0 0 200 200" fill="none" xmlns="http://www.w3.org/2000/svg">
<g clip-path="url(#clip0)">
<path d="M100.071 200.141C155.338 200.141 200.141 155.338 200.141 100.071C200.141 44.8031 155.338 0 100.071 0C44.8031 0 0 44.8031 0 100.071C0 155.338 44.8031 200.141 100.071 200.141Z" fill="#80BC81"/>
<path d="M57.8688 142.555C47.8476 132.534 47.8476 116.302 57.8688 105.716L105.999 57.5864C110.374 52.6464 117.29 50.1059 124.065 50.1059C130.981 50.1059 137.191 52.6464 142.131 57.5864C152.152 67.6076 152.152 84.4037 142.131 94.4248L94.1426 142.555C89.2026 147.495 82.2865 150.035 76.0762 150.035C69.0191 150.035 62.8088 147.495 57.8688 142.555Z" fill="white"/>
<path d="M109.668 61.8207L61.5385 110.092C54.0579 117.572 54.0579 130.134 61.5385 137.615C65.3493 141.426 70.2893 143.26 75.2294 143.26C80.1694 143.26 85.2505 141.426 88.9202 137.615L110.233 116.302C109.668 113.197 108.963 109.386 107.692 106.987L85.9562 128.723C83.4157 131.263 80.3105 132.534 76.6408 132.534H76.0762C72.2653 132.534 68.5956 131.263 66.055 128.723L70.4305 124.347C72.2653 126.182 74.8059 126.182 76.0762 126.182C77.9111 126.182 80.4517 125.618 81.7219 124.347L104.869 100.635C101.764 95.6951 96.6831 91.8843 89.9083 90.0494L116.867 62.5265C118.137 61.2562 119.972 60.6916 122.512 60.6916C123.783 60.6916 126.323 60.6916 128.158 62.5265L133.098 57.5864C129.711 55.6104 126.605 55.0459 122.795 55.0459C118.419 56.3162 113.479 58.151 109.668 61.8207Z" fill="#80BC81"/>
</g>
<defs>
<clipPath id="clip0">
<rect width="200" height="200" fill="white"/>
</clipPath>
</defs>
</svg>
