<svg width="200" height="200" viewBox="0 0 200 200" fill="none" xmlns="http://www.w3.org/2000/svg">
<path d="M100 200C155.228 200 200 155.228 200 100C200 44.7715 155.228 0 100 0C44.7715 0 0 44.7715 0 100C0 155.228 44.7715 200 100 200Z" fill="#A1C628"/>
<path fill-rule="evenodd" clip-rule="evenodd" d="M46.4469 154.024L45.9763 153.553C39.1337 146.629 35.2964 137.287 35.2964 127.553C35.2964 117.819 39.1337 108.477 45.9763 101.553L101.553 45.9766C108.476 39.1341 117.818 35.2968 127.553 35.2968C137.287 35.2968 146.629 39.1341 153.553 45.9766L154.023 46.4472C160.866 53.3709 164.703 62.7129 164.703 72.4472C164.703 82.1816 160.866 91.5235 154.023 98.4472L98.4469 154.024C91.5232 160.866 82.1812 164.704 72.4469 164.704C62.7125 164.704 53.3705 160.866 46.4469 154.024V154.024ZM87.5292 142.871L115.082 115.294L84.7057 84.9178L57.1292 112.471C53.1707 116.44 50.9478 121.818 50.9478 127.424C50.9478 133.03 53.1707 138.407 57.1292 142.377L57.6233 142.871C61.593 146.829 66.9702 149.052 72.5763 149.052C78.1823 149.052 83.5596 146.829 87.5292 142.871Z" fill="white"/>
</svg>
