<?xml version="1.0" encoding="UTF-8"?>
<!--https://github.com/muchdogesec/stix2icons/-->
<svg width="200" height="200" xmlns="http://www.w3.org/2000/svg" viewBox="0 0 85 85" id="cryptocurrency-transaction">
	<path style="fill:rgb(255,255,255)" d="m 20.178087,36.914663 c 0,-1.064575 0.864003,-1.928578 1.928579,-1.928578 h 36.486138 l -6.994312,-6.994313 c -0.753432,-0.753431 -0.753432,-1.974864 0,-2.728296 0.753431,-0.753431 1.974864,-0.753431 2.728296,0 L 64.612541,35.54923 c 0.550288,0.550287 0.717431,1.380862 0.419144,2.100865 -0.298287,0.720002 -1.002861,1.190576 -1.782006,1.190576 H 22.106666 c -1.064576,0 -1.928579,-0.864004 -1.928579,-1.928579 z m 43.071592,8.357175 H 22.106666 c -0.779146,0 -1.48372,0.470573 -1.782007,1.190576 -0.298287,0.720002 -0.133715,1.550577 0.419145,2.100865 l 10.285753,10.285753 c 0.37543,0.37543 0.869146,0.565716 1.362862,0.565716 0.493716,0 0.987433,-0.187715 1.362863,-0.565716 0.753431,-0.753432 0.753431,-1.974865 0,-2.728296 l -6.994313,-6.994312 h 36.486138 c 1.064576,0 1.928579,-0.864004 1.928579,-1.928579 0,-1.064575 -0.864003,-1.928579 -1.928579,-1.928579 z" />
</svg>
