<?xml version="1.0" encoding="UTF-8"?>
<!--https://github.com/muchdogesec/stix2icons/-->
<svg xmlns="http://www.w3.org/2000/svg" viewBox="0 0 85 85" id="cryptocurrency-wallet">
	<path style="fill:rgb(156,218,184)" d="M 62.92435,31.678234 H 28.304885 c -0.88875,0 -1.607143,-0.72 -1.607143,-1.607143 0,-0.887143 0.718393,-1.607143 1.607143,-1.607143 H 56.5456 v -6.026786 c 0,-0.856607 -0.384107,-1.655357 -1.052679,-2.190536 -0.671786,-0.538393 -1.54125,-0.732857 -2.370536,-0.546428 L 22.917742,26.48234 c -1.287321,0.289286 -2.188928,1.415894 -2.188928,2.736965 v 31.504822 c 0,1.546071 1.258392,2.806071 2.804464,2.806071 H 62.92435 c 1.546071,0 2.804464,-1.258393 2.804464,-2.806071 V 34.482698 c 0,-1.546071 -1.258393,-2.804464 -2.804464,-2.804464 z m -5.060893,18.790714 c -1.502679,0 -2.724107,-1.223036 -2.724107,-2.725714 0,-1.502679 1.223035,-2.725715 2.724107,-2.725715 1.504286,0 2.725714,1.223036 2.725714,2.725715 0,1.502678 -1.221428,2.725714 -2.725714,2.725714 z" />
</svg>
