<?xml version="1.0" encoding="UTF-8"?>
<!--https://github.com/muchdogesec/stix2icons/-->
<svg width="200" height="200" xmlns="http://www.w3.org/2000/svg" viewBox="0 0 85 85" id="cryptocurrency-exchange">
  <path style="fill:rgb(255,255,255)" d="m59.63,16H25.37c-5.14,0-9.37,4.23-9.37,9.37v34.26c0,5.14,4.23,9.37,9.37,9.37h34.26c5.14,0,9.37-4.23,9.37-9.37V25.37c0-5.14-4.23-9.37-9.37-9.37Zm-33.79,14.28l15.69-6.79c.61-.3,1.34-.3,1.95,0l15.68,6.79v2.07H25.84v-2.07Zm.55,4.56h32.22c1.04,0,1.88.84,1.88,1.88s-.84,1.88-1.88,1.88H26.39c-1.04,0-1.88-.84-1.88-1.88s.84-1.88,1.88-1.88Zm30.4,6.27v14.12h-7.05v-14.12h7.05Zm-10.77,0v14.12h-7.05v-14.12h7.05Zm-10.77,0v14.12h-7.05v-14.12h7.05Zm26.36,20.62H23.39v-1.75c0-1.24,1.01-2.25,2.25-2.25h33.73c1.24,0,2.25,1.01,2.25,2.25v1.75Z"/>
</svg>