<?xml version="1.0" encoding="UTF-8"?>
<!--https://github.com/muchdogesec/stix2icons/-->
<svg width="200" height="200" xmlns="http://www.w3.org/2000/svg" viewBox="0 0 85 85" id="domain-name">
   <path style="fill:rgb(255,255,255)" d="M 67.887462,31.721493 H 18.149616 c -0.883241,0 -1.599167,0.874943 -1.599167,1.954352 V 50.79802 H 69.487037 V 33.675845 c 0,-1.079409 -0.716337,-1.954352 -1.599575,-1.954352 z M 23.473813,48.266989 c -0.906792,0 -1.641399,-0.898268 -1.641399,-2.005965 0,-1.107699 0.734607,-2.005965 1.641399,-2.005965 0.906381,0 1.641399,0.898266 1.641399,2.005965 0,1.107697 -0.735018,2.005965 -1.641399,2.005965 z m 8.459588,-3.960815 h 3.323003 c 0.883238,0 1.599168,0.875438 1.599168,1.95485 0,1.079408 -0.71593,1.954352 -1.599168,1.954352 h -3.323003 c -2.713874,0 -4.922176,-2.698278 -4.922176,-6.015417 v -1.931522 c 0,-3.316643 2.208302,-6.015417 4.922176,-6.015417 h 3.323003 c 0.883238,0 1.599168,0.874944 1.599168,1.954353 0,1.079411 -0.71593,1.954849 -1.599168,1.954849 h -3.323003 c -0.950242,0 -1.72343,0.944917 -1.72343,2.106215 v 1.931522 c 0,1.161296 0.773188,2.106215 1.72343,2.106215 z m 17.361811,-2.106215 c 0,3.317139 -2.208297,6.015417 -4.922172,6.015417 -2.714279,0 -4.922577,-2.698278 -4.922577,-6.015417 v -1.931522 c 0,-3.316643 2.208298,-6.015417 4.922577,-6.015417 2.713875,0 4.922172,2.698276 4.922172,6.015417 z m 14.495247,4.061065 c 0,1.079408 -0.716336,1.954352 -1.599575,1.954352 -0.883236,0 -1.599167,-0.874944 -1.599167,-1.954352 v -5.464047 l -1.571959,1.846658 c -0.619281,0.727051 -1.597543,0.727051 -2.216418,0 l -1.572367,-1.846658 v 5.464047 c 0,1.079408 -0.715929,1.954352 -1.599167,1.954352 -0.883237,0 -1.599574,-0.874944 -1.599574,-1.954352 V 36.207373 c 0,-1.717131 1.692161,-2.601504 2.707784,-1.40894 l 3.171532,3.724584 3.171128,-3.724584 c 1.013184,-1.190082 2.707783,-0.312161 2.707783,1.40894 z m 0,0" />
   <path style="fill:rgb(255,255,255)" d="m 44.37304,37.462533 c -0.950242,0 -1.72343,1.231781 -1.72343,2.745631 v 2.517903 c 0,1.51385 0.772782,2.745632 1.72343,2.745632 0.950242,0 1.72343,-1.231133 1.72343,-2.745632 v -2.517903 c 0,-1.51385 -0.773188,-2.745631 -1.72343,-2.745631 z m 0,0" />
</svg>