<?xml version="1.0" encoding="UTF-8"?>
<!--https://github.com/muchdogesec/stix2icons/-->
<svg xmlns="http://www.w3.org/2000/svg" viewBox="0 0 85 85" id="email-message">
	<path style="fill:rgb(255,255,255)" d="m 49.327734,44.705025 -3.768838,3.781582 c -1.52833,1.533692 -4.217431,1.566738 -5.778808,0 L 36.011074,44.705025 22.474511,58.285529 c 0.503877,0.233 1.059434,0.37205 1.650059,0.37205 h 37.089844 c 0.590625,0 1.146006,-0.13887 1.649707,-0.37196 z" />
	<path style="fill:rgb(255,255,255)" d="M 61.214414,27.016949 H 24.12457 c -0.590625,0 -1.146182,0.139043 -1.649883,0.372041 l 14.464776,14.512764 c 9.66e-4,9.66e-4 0.0021,0.0011 0.0031,0.0021 9.67e-4,9.67e-4 0.0011,0.0023 0.0011,0.0023 l 4.703291,4.718848 c 0.499571,0.49957 1.545645,0.49957 2.045215,0 l 4.702343,-4.718063 c 0,0 0.0011,-0.0021 0.0021,-0.0031 0,0 0.0021,-0.0011 0.0031,-0.0021 L 62.864121,27.388902 C 62.36042,27.155816 61.805039,27.016949 61.214414,27.016949 Z" />
	<path style="fill:rgb(255,255,255)" d="m 20.590136,29.232847 c -0.260684,0.527168 -0.420644,1.112344 -0.420644,1.73918 v 23.730472 c 0,0.62683 0.159785,1.21201 0.420556,1.73918 l 13.56003,-13.603978 z" />
	<path style="fill:rgb(255,255,255)" d="M 64.748847,29.232672 51.188994,42.837701 64.748847,56.441849 c 0.260684,-0.52717 0.420645,-1.11234 0.420645,-1.73935 V 30.972027 c 0,-0.627012 -0.159961,-1.212187 -0.420645,-1.739355 z" />
</svg>