<?xml version="1.0" encoding="UTF-8"?>
<!--https://github.com/muchdogesec/stix2icons/-->
<svg xmlns="http://www.w3.org/2000/svg" viewBox="0 0 85 85" id="email-addr">
	<path style="fill:rgb(255,255,255)" d="M 64.812998,39.463624 A 22.495758,22.495758 0 0 0 20.093932,43.510361 22.598238,22.598238 0 0 0 41.172457,65.46622 c 0.47741,0.02999 0.95482,0.04499 1.42973,0.04499 a 22.2708,22.2708 0 0 0 8.418412,-1.637189 2.4995286,2.4995286 0 1 0 -1.874646,-4.631627 17.429213,17.429213 0 0 1 -7.668554,1.234767 17.789145,17.789145 0 0 1 -16.38441,-17.079279 17.4967,17.4967 0 0 1 34.778441,-3.176901 17.699162,17.699162 0 0 1 -0.569892,7.998492 3.4368518,3.4368518 0 0 1 -3.23439,2.339559 3.6968028,3.6968028 0 0 1 -2.457037,-0.999812 3.4118566,3.4118566 0 0 1 -1.022307,-2.43704 V 35.511869 a 2.4995286,2.4995286 0 0 0 -4.789097,-0.999811 9.8956338,9.8956338 0 0 0 -5.209018,-1.499717 9.9981145,9.9981145 0 0 0 0,19.996229 9.9031324,9.9031324 0 0 0 5.973874,-2.029618 8.4184124,8.4184124 0 0 0 15.497077,-1.277259 22.638231,22.638231 0 0 0 0.752358,-10.238069 z m -22.223309,8.545888 a 4.9990572,4.9990572 0 1 1 4.999058,-4.999057 4.9990572,4.9990572 0 0 1 -4.999058,4.999057 z" />
</svg>