<?xml version="1.0" encoding="UTF-8"?>
<!--https://github.com/muchdogesec/stix2icons/-->
<svg xmlns="http://www.w3.org/2000/svg" viewBox="0 0 85 85" id="extension-definition">
	<path style="fill:rgb(176,215,153)" d="M 20.371946,35.440487 20.178694,21.517206 c -0.0092,-0.708586 0.570551,-1.28834 1.279138,-1.279137 l 13.92328,0.202454 c 1.113493,0.0184 1.66564,1.361959 0.874231,2.153369 l -3.874225,3.874224 6.441703,6.441702 -5.981581,5.98158 -6.441702,-6.441703 -3.874224,3.874225 c -0.782206,0.782207 -2.134963,0.230061 -2.153368,-0.883433 z" />
	<path style="fill:rgb(176,215,153)" d="m 58.939337,32.532518 3.874225,3.874224 c 0.791409,0.791409 2.134962,0.239263 2.153367,-0.874232 l 0.202455,-13.923278 c 0.0092,-0.708588 -0.570551,-1.288342 -1.279139,-1.279139 l -13.923278,0.202453 c -1.113496,0.0184 -1.665642,1.36196 -0.874233,2.15337 l 3.865023,3.855819 -6.441703,6.441702 5.98158,5.98158 z" />
	<path style="fill:rgb(176,215,153)" d="m 49.083531,62.339194 c -0.791408,0.791409 -0.23926,2.134966 0.874233,2.153371 l 13.923278,0.20245 c 0.708588,0.0092 1.288342,-0.57055 1.279139,-1.279136 L 64.957727,49.492598 c -0.0184,-1.113493 -1.361959,-1.665639 -2.153368,-0.874229 l -3.874225,3.874222 -6.441701,-6.441702 -5.981582,5.981581 6.441702,6.441703 z" />
	<path style="fill:rgb(176,215,153)" d="m 21.457832,64.602994 13.92328,-0.202454 c 1.113493,-0.0184 1.66564,-1.361962 0.874231,-2.153371 l -3.874225,-3.865021 6.441703,-6.441702 -5.981581,-5.98158 -6.441702,6.441702 -3.874224,-3.874224 c -0.791409,-0.791409 -2.134963,-0.239264 -2.153368,0.874231 l -0.202454,13.923279 c 0,0.70859 0.579753,1.288343 1.28834,1.27914 z" />
</svg>