<svg width="200" height="200" viewBox="0 0 200 200" fill="none" xmlns="http://www.w3.org/2000/svg">
<path d="M100 200C155.228 200 200 155.228 200 100C200 44.7715 155.228 0 100 0C44.7715 0 0 44.7715 0 100C0 155.228 44.7715 200 100 200Z" fill="#A3358B"/>
<path d="M37.647 81.6471V59.5294C37.6779 53.7354 39.9933 48.1875 44.0903 44.0904C48.1874 39.9934 53.7353 37.678 59.5293 37.6471H81.647V53.6471H58.1176C56.9319 53.6471 55.7948 54.1181 54.9564 54.9565C54.118 55.7949 53.647 56.932 53.647 58.1177V81.6471H37.647ZM146.353 81.6471V58.1177C146.353 56.932 145.882 55.7949 145.043 54.9565C144.205 54.1181 143.068 53.6471 141.882 53.6471H118.353V37.6471H140.47C146.265 37.678 151.812 39.9934 155.91 44.0904C160.007 48.1875 162.322 53.7354 162.353 59.5294V81.6471H146.353ZM65.5293 89.7647C65.5293 83.3995 68.0579 77.2951 72.5588 72.7942C77.0596 68.2933 83.1641 65.7647 89.5293 65.7647C95.8945 65.7647 101.999 68.2933 106.5 72.7942C111.001 77.2951 113.529 83.3995 113.529 89.7647H97.5293C96.4942 89.7801 95.4722 89.9992 94.5217 90.4095C93.5712 90.8199 92.7109 91.4135 91.9899 92.1564C91.2688 92.8993 90.7012 93.7769 90.3194 94.7392C89.9376 95.7015 89.7491 96.7296 89.7646 97.7647V113.765C83.3832 113.747 77.2648 111.22 72.7305 106.729C68.1961 102.239 65.6096 96.1457 65.5293 89.7647ZM94.7293 134.259C93.4812 134.259 92.2843 133.763 91.4018 132.881C90.5192 131.998 90.0234 130.801 90.0234 129.553V114.024C96.381 113.999 102.471 111.462 106.967 106.967C111.462 102.471 113.999 96.3811 114.023 90.0236H129.553C130.801 90.0236 131.998 90.5194 132.88 91.4019C133.763 92.2844 134.259 93.4814 134.259 94.7294V129.553C134.26 130.191 134.13 130.823 133.879 131.41C133.628 131.997 133.261 132.526 132.798 132.967C132.336 133.407 131.789 133.748 131.191 133.971C130.592 134.193 129.955 134.291 129.318 134.259H94.7293ZM59.5293 162.353C53.7353 162.322 48.1874 160.007 44.0903 155.91C39.9933 151.813 37.6779 146.265 37.647 140.471V118.353H53.647V141.882C53.704 143.05 54.1933 144.154 55.0197 144.98C55.846 145.807 56.9503 146.296 58.1176 146.353H81.647V162.353H59.5293ZM118.353 162.353V146.353H141.882C143.068 146.353 144.205 145.882 145.043 145.044C145.882 144.205 146.353 143.068 146.353 141.882V118.353H162.353V140.471C162.322 146.265 160.007 151.813 155.91 155.91C151.812 160.007 146.265 162.322 140.47 162.353H118.353Z" fill="white"/>
</svg>
