<?xml version="1.0" encoding="UTF-8"?>
<!--https://github.com/muchdogesec/stix2icons/-->
<svg xmlns="http://www.w3.org/2000/svg" viewBox="0 0 85 85" id="grouping">
  <path style="fill:rgb(163,53,139)" d="M16,34.7V25.3A9.35,9.35,0,0,1,25.3,16h9.4v6.8h-10a1.9,1.9,0,0,0-1.9,1.9v10Zm46.2,0v-10a1.9,1.9,0,0,0-1.9-1.9h-10V16h9.4A9.35,9.35,0,0,1,69,25.3v9.4ZM27.85,38.15a10.2,10.2,0,0,1,20.4,0h-6.8a3.35,3.35,0,0,0-3.3,3.4v6.8A10.33,10.33,0,0,1,27.85,38.15ZM40.26,57.06a2,2,0,0,1-2-2v-6.6a10.24,10.24,0,0,0,10.2-10.2h6.6a2,2,0,0,1,2,2v14.8a2,2,0,0,1-2.1,2ZM25.3,69A9.35,9.35,0,0,1,16,59.7V50.3h6.8v10a2,2,0,0,0,1.9,1.9h10V69Zm25,0V62.2h10a1.9,1.9,0,0,0,1.9-1.9v-10H69v9.4A9.35,9.35,0,0,1,59.7,69Z"/>
</svg>