<?xml version="1.0" encoding="UTF-8"?>
<!--https://github.com/muchdogesec/stix2icons/-->
<svg xmlns="http://www.w3.org/2000/svg" viewBox="0 0 85 85" id="identity">
  <path style="fill:rgb(255,255,255)" d="m59.63,16.05l-34.23-.05c-5.13,0-9.37,4.21-9.38,9.35l-.05,34.23c0,5.13,4.21,9.37,9.35,9.38l34.23.05c5.13,0,9.37-4.21,9.38-9.35l.05-34.23c0-5.13-4.21-9.37-9.35-9.38Zm-17.2,42.41c-2.34,0-3.92-1.72-3.92-4.02s1.64-4.01,3.93-4,3.92,1.68,3.96,4.02c0,2.29-1.59,4.01-3.97,4.01Zm5.16-17.22c-1.63,1.8-2.3,3.52-2.25,5.51v.79s-5.86,0-5.86,0l-.04-1.15c-.13-2.25.62-4.54,2.61-6.92,1.41-1.67,2.56-3.08,2.56-4.58s-1.01-2.56-3.21-2.65c-1.45,0-3.22.52-4.36,1.32l-1.49-4.81c1.59-.92,4.23-1.8,7.36-1.8,5.82,0,8.46,3.23,8.45,6.89,0,3.35-2.08,5.55-3.76,7.4Z"/>
</svg>