<?xml version="1.0" encoding="UTF-8"?>
<!--https://github.com/muchdogesec/stix2icons/-->
<svg xmlns="http://www.w3.org/2000/svg" viewBox="0 0 85 85" id="identity_group">
  <path style="fill:rgb(255,255,255)" d="m59.63,16H25.37c-5.14,0-9.37,4.23-9.37,9.37v34.26c0,5.14,4.23,9.37,9.37,9.37h34.26c5.14,0,9.37-4.23,9.37-9.37V25.37c0-5.14-4.23-9.37-9.37-9.37Zm-6.27,7.24c2.62,0,4.71,2.09,4.71,4.71s-2.09,4.71-4.71,4.71-4.71-2.09-4.71-4.71,2.09-4.71,4.71-4.71Zm-21.72,0c2.62,0,4.71,2.09,4.71,4.71s-2.09,4.71-4.71,4.71-4.71-2.09-4.71-4.71,2.09-4.71,4.71-4.71Zm7.9,38.51h-15.8v-.18c0-3.39,2.74-6.13,6.13-6.13h3.54c3.39,0,6.13,2.74,6.13,6.13v.18Zm-12.61-12.73c0-2.62,2.09-4.71,4.71-4.71s4.71,2.09,4.71,4.71-2.09,4.71-4.71,4.71-4.71-2.09-4.71-4.71Zm12.61-8.35h-15.8v-.18c0-3.39,2.74-6.13,6.13-6.13h3.54c3.39,0,6.13,2.74,6.13,6.13v.18Zm21.72,21.08h-15.8v-.18c0-3.39,2.74-6.13,6.13-6.13h3.54c3.39,0,6.13,2.74,6.13,6.13v.18Zm-12.61-12.73c0-2.62,2.09-4.71,4.71-4.71s4.71,2.09,4.71,4.71-2.09,4.71-4.71,4.71-4.71-2.09-4.71-4.71Zm12.61-8.35h-15.8v-.18c0-3.39,2.74-6.13,6.13-6.13h3.54c3.39,0,6.13,2.74,6.13,6.13v.18Z"/>
</svg>