<?xml version="1.0" encoding="UTF-8"?>
<!--https://github.com/muchdogesec/stix2icons/-->
<svg xmlns="http://www.w3.org/2000/svg" viewBox="0 0 85 85" id="identity_individual">
  <path style="fill:rgb(255,255,255)" d="M16,59.63V25.37A9.42,9.42,0,0,1,25.37,16H59.63A9.42,9.42,0,0,1,69,25.37V59.63A9.42,9.42,0,0,1,59.63,69H25.37A9.42,9.42,0,0,1,16,59.63Zm41.51-.3V59A10.35,10.35,0,0,0,47.14,48.65H37.76A10.35,10.35,0,0,0,27.39,59v.31ZM49.75,36.15a7.25,7.25,0,1,0-7.25,7.26A7.22,7.22,0,0,0,49.75,36.15Z"/>
</svg>