<?xml version="1.0" encoding="UTF-8"?>
<!--https://github.com/muchdogesec/stix2icons/-->
<svg width="200" height="200" xmlns="http://www.w3.org/2000/svg" viewBox="0 0 85 85" id="identity_system">
  <path style="fill:rgb(255,255,255)" d="m30.94,49.97c-1.75,0-3.17,1.42-3.17,3.17s1.42,3.17,3.17,3.17,3.17-1.42,3.17-3.17-1.42-3.17-3.17-3.17Z"/>
  <path style="fill:rgb(255,255,255)" d="m30.94,28.69c-1.75,0-3.17,1.42-3.17,3.17s1.42,3.17,3.17,3.17,3.17-1.42,3.17-3.17-1.42-3.17-3.17-3.17Z"/>
  <path style="fill:rgb(255,255,255)" d="m59.63,16H25.37c-5.14,0-9.37,4.23-9.37,9.37v34.26c0,5.14,4.23,9.37,9.37,9.37h34.26c5.14,0,9.37-4.23,9.37-9.37V25.37c0-5.14-4.23-9.37-9.37-9.37Zm2.3,43.68c0,1.24-1.01,2.25-2.25,2.25H25.32c-1.24,0-2.25-1.01-2.25-2.25v-13.07c0-1.24,1.01-2.25,2.25-2.25h34.36c1.24,0,2.25,1.01,2.25,2.25v13.07Zm0-21.29c0,1.24-1.01,2.25-2.25,2.25H25.32c-1.24,0-2.25-1.01-2.25-2.25v-13.07c0-1.24,1.01-2.25,2.25-2.25h34.36c1.24,0,2.25,1.01,2.25,2.25v13.07Z"/>
</svg>