<svg width="200" height="200" viewBox="0 0 200 200" fill="none" xmlns="http://www.w3.org/2000/svg">
<path d="M100 200C155.228 200 200 155.228 200 100C200 44.7715 155.228 0 100 0C44.7715 0 0 44.7715 0 100C0 155.228 44.7715 200 100 200Z" fill="#929697"/>
<path fill-rule="evenodd" clip-rule="evenodd" d="M37.647 140.306V59.6942C37.6779 53.8564 40.0106 48.2666 44.1386 44.1387C48.2665 40.0107 53.8563 37.678 59.694 37.6471H140.306C146.144 37.678 151.733 40.0107 155.861 44.1387C159.989 48.2666 162.322 53.8564 162.353 59.6942V140.306C162.322 146.144 159.989 151.733 155.861 155.861C151.733 159.989 146.144 162.322 140.306 162.353H59.694C53.8563 162.322 48.2665 159.989 44.1386 155.861C40.0106 151.733 37.6779 146.144 37.647 140.306ZM135.318 139.6V138.824C135.318 135.622 134.686 132.451 133.459 129.493C132.233 126.536 130.434 123.849 128.168 121.587C125.902 119.325 123.212 117.532 120.251 116.311C117.291 115.09 114.12 114.464 110.918 114.471H88.847C85.6449 114.464 82.4731 115.09 79.513 116.311C76.553 117.532 73.8628 119.325 71.5964 121.587C69.33 123.849 67.532 126.536 66.3052 129.493C65.0784 132.451 64.447 135.622 64.447 138.824V139.553L135.318 139.6ZM117.059 85.0589C117.054 81.6859 116.05 78.3901 114.172 75.5879C112.295 72.7857 109.629 70.6029 106.512 69.3153C103.394 68.0278 99.965 67.6933 96.6575 68.3542C93.35 69.0151 90.3126 70.6416 87.9292 73.0283C85.5458 75.4149 83.9235 78.4546 83.2672 81.763C82.6109 85.0715 82.95 88.5002 84.2419 91.6159C85.5337 94.7317 87.7202 97.3945 90.525 99.2679C93.3298 101.141 96.627 102.141 99.9999 102.141C102.245 102.151 104.469 101.715 106.545 100.859C108.62 100.004 110.505 98.7458 112.092 97.1573C113.678 95.5689 114.933 93.6819 115.786 91.6052C116.639 89.5286 117.071 87.3036 117.059 85.0589Z" fill="white"/>
</svg>
