<?xml version="1.0" encoding="UTF-8"?>
<!--https://github.com/muchdogesec/stix2icons/-->
<svg xmlns="http://www.w3.org/2000/svg" viewBox="0 0 85 85" id="incident">
  <path style="fill:rgb(251,182,22)" d="M63.59,44.88a3.36,3.36,0,0,1,0-4.75L73,30.72a.87.87,0,0,0-.62-1.49H59.13a3.36,3.36,0,0,1-3.36-3.35V12.58A.87.87,0,0,0,54.29,12l-9.42,9.41a3.35,3.35,0,0,1-4.74,0L30.71,12a.87.87,0,0,0-1.48.61v13.3a3.36,3.36,0,0,1-3.36,3.35H12.61A.87.87,0,0,0,12,30.72l9.42,9.41a3.36,3.36,0,0,1,0,4.75L12,54.29a.87.87,0,0,0,.62,1.49H25.87a3.36,3.36,0,0,1,3.36,3.35V72.42a.87.87,0,0,0,1.48.61l9.42-9.41a3.35,3.35,0,0,1,4.74,0L54.29,73a.87.87,0,0,0,1.48-.61V59.13a3.36,3.36,0,0,1,3.36-3.35H72.39A.87.87,0,0,0,73,54.29Zm-9.21-.82A12,12,0,1,1,40.94,30.62,12,12,0,0,1,54.38,44.06Z"/>
  <path style="fill:rgb(251,182,22)" d="M42.5,36.9a5.6,5.6,0,1,0,5.6,5.6A5.6,5.6,0,0,0,42.5,36.9Z"/>
</svg>