<svg width="200" height="200" viewBox="0 0 200 200" fill="none" xmlns="http://www.w3.org/2000/svg">
<path d="M100 200C155.228 200 200 155.228 200 100C200 44.7715 155.228 0 100 0C44.7715 0 0 44.7715 0 100C0 155.228 44.7715 200 100 200Z" fill="#FCB617"/>
<path d="M149.623 105.6C148.142 104.118 147.31 102.108 147.31 100.012C147.31 97.916 148.142 95.906 149.623 94.4235L171.765 72.2824C172.055 71.996 172.254 71.6292 172.335 71.2291C172.416 70.829 172.375 70.4139 172.219 70.037C172.062 69.6601 171.796 69.3387 171.455 69.1141C171.114 68.8895 170.714 68.7719 170.306 68.7765H139.129C137.037 68.7765 135.029 67.9468 133.547 66.4692C132.065 64.9917 131.23 62.9868 131.223 60.8941V29.6C131.205 29.2047 131.073 28.823 130.843 28.5012C130.613 28.1794 130.294 27.9313 129.925 27.7869C129.557 27.6425 129.154 27.608 128.767 27.6876C128.379 27.7672 128.023 27.9574 127.741 28.2353L105.576 50.3765C104.844 51.1093 103.975 51.6906 103.018 52.0872C102.061 52.4838 101.036 52.688 99.9998 52.688C98.9641 52.688 97.9384 52.4838 96.9816 52.0872C96.0247 51.6906 95.1554 51.1093 94.4234 50.3765L72.2587 28.2353C71.9725 27.9539 71.6099 27.7627 71.216 27.6857C70.8221 27.6087 70.4143 27.6492 70.0432 27.8021C69.6721 27.9551 69.3542 28.2137 69.1289 28.546C68.9037 28.8782 68.7811 29.2693 68.7763 29.6706V60.9647C68.7701 63.0574 67.9344 65.0623 66.4524 66.5398C64.9705 68.0174 62.9631 68.8471 60.8704 68.8471H29.6704C29.2784 68.8601 28.8984 68.9855 28.5757 69.2083C28.2529 69.4311 28.0009 69.7419 27.8497 70.1038C27.6985 70.4657 27.6544 70.8634 27.7228 71.2497C27.7911 71.6359 27.9689 71.9943 28.2351 72.2824L50.3999 94.4235C51.8812 95.906 52.7134 97.916 52.7134 100.012C52.7134 102.108 51.8812 104.118 50.3999 105.6L28.2351 127.741C27.9442 128.028 27.7455 128.394 27.6646 128.794C27.5837 129.195 27.6243 129.61 27.7811 129.987C27.9379 130.363 28.2039 130.685 28.5447 130.909C28.8856 131.134 29.2858 131.252 29.694 131.247H60.8704C62.9631 131.247 64.9705 132.077 66.4524 133.554C67.9344 135.032 68.7701 137.037 68.7763 139.129V170.4C68.7811 170.801 68.9037 171.192 69.1289 171.525C69.3542 171.857 69.6721 172.116 70.0432 172.268C70.4143 172.421 70.8221 172.462 71.216 172.385C71.6099 172.308 71.9725 172.117 72.2587 171.835L94.4234 149.694C95.1554 148.961 96.0247 148.38 96.9816 147.983C97.9384 147.587 98.9641 147.383 99.9998 147.383C101.036 147.383 102.061 147.587 103.018 147.983C103.975 148.38 104.844 148.961 105.576 149.694L127.741 171.765C128.027 172.046 128.39 172.237 128.784 172.314C129.178 172.391 129.585 172.351 129.957 172.198C130.328 172.045 130.646 171.786 130.871 171.454C131.096 171.122 131.219 170.731 131.223 170.329V139.129C131.23 137.037 132.065 135.032 133.547 133.554C135.029 132.077 137.037 131.247 139.129 131.247H170.329C170.735 131.247 171.132 131.126 171.47 130.9C171.807 130.673 172.069 130.351 172.223 129.976C172.377 129.6 172.415 129.187 172.334 128.789C172.252 128.391 172.054 128.026 171.765 127.741L149.623 105.6ZM127.953 103.671C127.276 108.903 125.147 113.84 121.808 117.924C118.468 122.008 114.051 125.074 109.057 126.776C104.064 128.477 98.6932 128.746 93.5549 127.551C88.4165 126.356 83.7157 123.745 79.9853 120.015C76.255 116.284 73.6443 111.583 72.4493 106.445C71.2543 101.307 71.5228 95.9362 73.2242 90.9427C74.9257 85.9491 77.9921 81.532 82.0759 78.1923C86.1596 74.8526 91.0973 72.7237 96.3293 72.0471C100.614 71.493 104.968 71.9294 109.057 73.3227C113.146 74.716 116.861 77.0291 119.916 80.0838C122.971 83.1385 125.284 86.8535 126.677 90.9427C128.07 95.0318 128.507 99.3862 127.953 103.671V103.671Z" fill="white"/>
<path d="M99.9997 86.8236C97.3937 86.8236 94.8461 87.5964 92.6793 89.0442C90.5124 90.4921 88.8235 92.55 87.8262 94.9577C86.829 97.3653 86.568 100.015 87.0764 102.571C87.5848 105.127 88.8398 107.474 90.6825 109.317C92.5253 111.16 94.8731 112.415 97.4291 112.923C99.9851 113.432 102.634 113.171 105.042 112.174C107.45 111.176 109.508 109.487 110.956 107.321C112.403 105.154 113.176 102.606 113.176 100C113.176 98.2697 112.835 96.5563 112.173 94.9577C111.511 93.359 110.54 91.9065 109.317 90.6829C108.093 89.4594 106.641 88.4888 105.042 87.8266C103.443 87.1644 101.73 86.8236 99.9997 86.8236V86.8236Z" fill="white"/>
</svg>
