<svg width="200" height="200" viewBox="0 0 200 200" fill="none" xmlns="http://www.w3.org/2000/svg">
<path d="M100 200C155.228 200 200 155.228 200 100C200 44.7715 155.228 0 100 0C44.7715 0 0 44.7715 0 100C0 155.228 44.7715 200 100 200Z" fill="#AED7C0"/>
<path fill-rule="evenodd" clip-rule="evenodd" d="M37.647 140.306V134.847H69.9529V162.353H59.7411C53.8971 162.328 48.2988 159.999 44.162 155.871C40.0253 151.743 37.6841 146.15 37.647 140.306V140.306ZM85.8587 162.353V134.847H162.353V140.306C162.316 146.15 159.975 151.743 155.838 155.871C151.701 159.999 146.103 162.328 140.259 162.353H85.8587ZM37.647 118.965V59.6942C37.6841 53.8502 40.0253 48.2569 44.162 44.129C48.2988 40.001 53.8971 37.6718 59.7411 37.6471H69.9529V118.965H37.647ZM85.8587 118.965V37.6471H140.259C146.103 37.6718 151.701 40.001 155.838 44.129C159.975 48.2569 162.316 53.8502 162.353 59.6942V118.965H85.8587Z" fill="white"/>
</svg>
