<?xml version="1.0" encoding="UTF-8"?>
<!--https://github.com/muchdogesec/stix2icons/-->
<svg xmlns="http://www.w3.org/2000/svg" viewBox="0 0 85 85" id="intrustion-set">
  <path style="fill:rgb(56,178,193)" d="M22.75,55.75A5.31,5.31,0,1,1,26.5,57.3,5.31,5.31,0,0,1,22.75,55.75ZM53.2,52a5.3,5.3,0,1,1,5.3,5.3A5.3,5.3,0,0,1,53.2,52ZM30.34,66.42a3.28,3.28,0,0,1,5.38-3.77,1.88,1.88,0,0,0,1.5.89,2.2,2.2,0,0,0,2-2.28V42.4H15a27.5,27.5,0,0,1,55,0H45.79V61.16A8.67,8.67,0,0,1,37.32,70H37A8,8,0,0,1,30.34,66.42Z"/>
</svg>