<svg width="200" height="200" viewBox="0 0 200 200" fill="none" xmlns="http://www.w3.org/2000/svg">
<path d="M100 200C155.228 200 200 155.228 200 100C200 44.7715 155.228 0 100 0C44.7715 0 0 44.7715 0 100C0 155.228 44.7715 200 100 200Z" fill="#39B2C1"/>
<path d="M53.5292 131.176C51.4819 129.135 50.206 126.446 49.9191 123.569C49.6321 120.692 50.3518 117.805 51.9556 115.399C53.5593 112.994 55.9477 111.218 58.7137 110.377C61.4797 109.535 64.4521 109.678 67.1241 110.783C69.7962 111.887 72.0024 113.884 73.3669 116.433C74.7313 118.982 75.1695 121.926 74.6066 124.762C74.0437 127.598 72.5147 130.151 70.2802 131.985C68.0457 133.82 65.244 134.823 62.3528 134.824C59.0448 134.824 55.8716 133.512 53.5292 131.176V131.176ZM125.176 122.353C125.176 119.886 125.908 117.475 127.278 115.425C128.648 113.374 130.596 111.775 132.875 110.832C135.153 109.888 137.661 109.641 140.08 110.122C142.499 110.603 144.721 111.791 146.465 113.535C148.209 115.279 149.397 117.501 149.878 119.92C150.359 122.339 150.112 124.847 149.168 127.125C148.224 129.404 146.626 131.352 144.575 132.722C142.524 134.092 140.113 134.824 137.647 134.824C134.339 134.824 131.168 133.51 128.829 131.171C126.49 128.832 125.176 125.66 125.176 122.353V122.353ZM71.3881 156.282C70.2118 154.604 69.7505 152.527 70.1057 150.508C70.4609 148.489 71.6035 146.694 73.2822 145.518C74.9608 144.341 77.038 143.88 79.0568 144.235C81.0756 144.59 82.8706 145.733 84.0469 147.412C84.4222 148.02 84.9394 148.528 85.554 148.893C86.1687 149.258 86.8626 149.468 87.5763 149.506C88.8992 149.386 90.1255 148.763 91.0014 147.764C91.8773 146.765 92.3359 145.468 92.2822 144.141V99.7647H35.2939C35.2939 82.6037 42.1112 66.1455 54.2459 54.0108C66.3806 41.876 82.8388 35.0588 99.9998 35.0588C117.161 35.0588 133.619 41.876 145.754 54.0108C157.889 66.1455 164.706 82.6037 164.706 99.7647H107.741V143.906C107.848 149.305 105.811 154.526 102.075 158.425C98.3392 162.324 93.21 164.582 87.8116 164.706H87.0587C83.9546 164.703 80.8995 163.932 78.1654 162.462C75.4313 160.993 73.1031 158.87 71.3881 156.282V156.282Z" fill="white"/>
</svg>
