<?xml version="1.0" encoding="UTF-8"?>
<!--https://github.com/muchdogesec/stix2icons/-->
<svg xmlns="http://www.w3.org/2000/svg" viewBox="0 0 85 85" id="ipv4-addr">
	<path style="fill:rgb(222,130,171)" d="m 53.427966,31.529661 c 0,-6.0654 -4.9346,-11 -11,-11 -6.0654,0 -11,4.9346 -11,11 0,5.81827 4.543,10.58273 10.266671,10.9626 V 63.06299 c 0,0.405541 0.328529,0.733341 0.733329,0.733341 0.404799,0 0.733329,-0.3278 0.733329,-0.733341 V 42.492261 c 5.723671,-0.37987 10.266671,-5.14433 10.266671,-10.9626 z m -14.666671,0 c -1.617729,0 -2.933329,-1.3156 -2.933329,-2.933331 0,-1.617738 1.3156,-2.933338 2.933329,-2.933338 1.617742,0 2.933342,1.3156 2.933342,2.933338 0,1.617731 -1.3156,2.933331 -2.933342,2.933331 z" />
</svg>