<?xml version="1.0" encoding="UTF-8"?>
<!--https://github.com/muchdogesec/stix2icons/-->
<svg xmlns="http://www.w3.org/2000/svg" viewBox="0 0 85 85" id="language-content">
   <path style="fill:rgb(255,23,68)" d="m 54.417273,41.909408 c 0.569268,1.529208 1.326445,2.767059 2.164394,3.82034 0.83795,-1.053281 1.683018,-2.29122 2.252286,-3.82034 z"/>
   <path style="fill:rgb(255,23,68)" d="M 61.942993,27.319563 H 45.570466 l 3.413847,27.393661 c 0.06038,1.120431 -0.245916,2.175294 -0.977167,3.001116 l -5.781271,6.607176 h 19.717118 c 2.180919,0 3.95508,-1.774161 3.95508,-3.955079 V 31.362531 c 0,-2.180917 -1.774161,-4.042968 -3.95508,-4.042968 z m 0,14.589845 h -0.352088 c -0.750145,2.406708 -1.939745,4.28994 -3.176014,5.774589 0.968464,0.885409 2.004081,1.611738 3.03372,2.425253 0.567774,0.454484 0.660498,1.283555 0.204696,1.852647 -0.45369,0.568213 -1.286015,0.660321 -1.852646,0.204696 -1.118761,-0.883035 -2.168876,-1.622196 -3.218994,-2.585828 -1.050118,0.963632 -2.012344,1.702793 -3.131104,2.585828 -0.566631,0.455625 -1.398954,0.363517 -1.852646,-0.204696 -0.4558,-0.569092 -0.363076,-1.398163 0.204698,-1.852647 1.029639,-0.813515 1.977363,-1.539844 2.945829,-2.425253 -1.23627,-1.484562 -2.338065,-3.367793 -3.088125,-5.774589 H 51.30823 c -0.728701,0 -1.318361,-0.589659 -1.318361,-1.31836 0,-0.728702 0.58966,-1.318361 1.318361,-1.318361 h 3.955077 v -1.318358 c 0,-0.728702 0.589659,-1.31836 1.31836,-1.31836 0.728701,0 1.318358,0.589658 1.318358,1.31836 v 1.318358 h 4.042969 c 0.728703,0 1.318361,0.589659 1.318361,1.318361 0,0.728701 -0.589658,1.31836 -1.318362,1.31836 z" />
   <path style="fill:rgb(255,23,68)" d="M 42.3578,22.786077 C 42.111881,20.811086 40.42403,19.321516 38.433658,19.321516 H 24.853152 c -2.180919,0 -3.955079,1.77416 -3.955079,3.955078 v 29.179687 c 0,2.180918 1.77416,3.955079 3.955079,3.955079 7.881151,0 13.550711,0 20.790615,0 0.384607,-0.43963 0.706993,-0.714901 0.720614,-1.288739 0.0033,-0.143879 -3.98874,-32.19381 -4.006581,-32.336544 z m -5.292774,21.734296 c -0.699081,0.143877 -1.407217,-0.309989 -1.551357,-1.033857 l -0.842608,-4.213829 h -3.727528 l -0.842608,4.213829 c -0.141593,0.713232 -0.82916,1.181865 -1.551358,1.033857 C 27.836335,44.377465 27.3728,43.683567 27.51571,42.969016 l 2.63663,-13.183593 c 0.123574,-0.61541 0.664366,-1.05961 1.292608,-1.05961 h 2.724609 c 0.628243,0 1.169033,0.444199 1.292608,1.05961 l 2.636719,13.183593 c 0.14291,0.714551 -0.320539,1.408449 -1.033858,1.551357 z" />
   <path style="fill:rgb(255,23,68)" d="m 36.301872,59.048079 0.226229,1.808876 c 0.150821,1.211398 0.955724,2.4467 2.279708,3.063517 2.498555,-2.75045 0.986923,-1.086505 4.426084,-4.872393 z" />
</svg>