<svg width="200" height="200" viewBox="0 0 200 200" fill="none" xmlns="http://www.w3.org/2000/svg">
<path d="M100 200C155.228 200 200 155.228 200 100C200 44.7715 155.228 0 100 0C44.7715 0 0 44.7715 0 100C0 155.228 44.7715 200 100 200Z" fill="#505657"/>
<path fill-rule="evenodd" clip-rule="evenodd" d="M86.0945 73.4823C86.0851 71.6577 86.4379 69.8494 87.1325 68.1622C87.8272 66.475 88.8497 64.9425 90.141 63.6534C91.4323 62.3643 92.9666 61.3443 94.655 60.6525C96.3434 59.9608 98.1523 59.611 99.9768 59.6235C103.647 59.642 107.161 61.1081 109.756 63.7031C112.351 66.2982 113.817 69.8124 113.836 73.4823C113.848 75.3069 113.498 77.1157 112.807 78.8041C112.115 80.4925 111.095 82.0268 109.806 83.3181C108.517 84.6094 106.984 85.632 105.297 86.3266C103.61 87.0212 101.801 87.374 99.9768 87.3647C96.2988 87.3523 92.775 85.8857 90.1742 83.2849C87.5734 80.6841 86.1069 77.1603 86.0945 73.4823V73.4823ZM137.483 66.2117C133.836 48.9411 120.659 35.2941 99.9768 35.2941C79.2945 35.2941 66.3298 48.9411 62.3298 66.2117C55.0592 100.541 80.3062 137.365 99.9768 164.423C119.53 137.365 144.989 100.306 137.483 66.2117V66.2117Z" fill="white"/>
</svg>
