<?xml version="1.0" encoding="UTF-8"?>
<!--https://github.com/muchdogesec/stix2icons/-->
<svg xmlns="http://www.w3.org/2000/svg" viewBox="0 0 85 85" id="mac-addr">
	<path style="fill:rgb(247,184,203)" d="m 54.537545,25.886136 c -0.810088,0 -1.467422,0.656807 -1.467422,1.467422 v 29.347818 c 0,0.81062 0.657334,1.46743 1.467422,1.46743 0.810088,0 1.467422,-0.65681 1.467422,-1.46743 V 27.353558 c 0,-0.810615 -0.657246,-1.467422 -1.467422,-1.467422 z" />
	<path style="fill:rgb(247,184,203)" d="m 37.907144,25.886136 c -0.810088,0 -1.467422,0.656807 -1.467422,1.467422 v 29.347818 c 0,0.81062 0.657334,1.46743 1.467422,1.46743 0.810088,0 1.467422,-0.65681 1.467422,-1.46743 V 27.353558 c 0,-0.810615 -0.657334,-1.467422 -1.467422,-1.467422 z" />
	<path style="fill:rgb(247,184,203)" d="m 31.059322,25.886136 c -0.810088,0 -1.467422,0.656807 -1.467422,1.467422 v 29.347818 c 0,0.81062 0.657334,1.46743 1.467422,1.46743 0.810088,0 1.467422,-0.65681 1.467422,-1.46743 V 27.353558 c 0,-0.810615 -0.657334,-1.467422 -1.467422,-1.467422 z" />
	<path style="fill:rgb(247,184,203)" d="m 22.744078,25.886136 c -1.620879,0 -2.934756,1.313877 -2.934756,2.934756 v 26.413064 c 0,1.62088 1.313877,2.93476 2.934756,2.93476 1.620879,0 2.934756,-1.31388 2.934756,-2.93476 V 28.820892 c 8.8e-5,-1.620879 -1.313877,-2.934756 -2.934756,-2.934756 z" />
	<path style="fill:rgb(247,184,203)" d="m 46.222388,25.886136 c -1.620878,0 -2.934755,1.313877 -2.934755,2.934756 v 26.413064 c 0,1.62088 1.313877,2.93476 2.934755,2.93476 1.620879,0 2.934756,-1.31388 2.934756,-2.93476 V 28.820892 c 0,-1.620879 -1.313877,-2.934756 -2.934756,-2.934756 z" />
	<path style="fill:rgb(247,184,203)" d="m 46.222388,25.886136 c -1.620878,0 -2.934755,1.313877 -2.934755,2.934756 v 26.413064 c 0,1.62088 1.313877,2.93476 2.934755,2.93476 1.620879,0 2.934756,-1.31388 2.934756,-2.93476 V 28.820892 c 0,-1.620879 -1.313877,-2.934756 -2.934756,-2.934756 z" />
	<path style="fill:rgb(247,184,203)" d="m 61.874566,25.886136 c -1.620879,0 -2.934756,1.313877 -2.934756,2.934756 v 26.413064 c 0,1.62088 1.313877,2.93476 2.934756,2.93476 1.620879,0 2.934756,-1.31388 2.934756,-2.93476 V 28.820892 c 0,-1.620879 -1.313877,-2.934756 -2.934756,-2.934756 z" />
</svg>
