<?xml version="1.0" encoding="UTF-8"?>
<!--https://github.com/muchdogesec/stix2icons/-->
<svg xmlns="http://www.w3.org/2000/svg" viewBox="0 0 85 85" id="marking-definition">
   <path style="fill:rgb(38,198,218)" d="m 38.81613,21.224615 v 8.343409 c 0,1.131551 -0.917273,2.048395 -2.048824,2.048395 -4.037207,0 -6.233278,4.140766 -6.537651,12.313294 h 6.537651 c 1.131551,0 2.048824,0.917704 2.048824,2.048827 v 17.616695 c 0,1.13098 -0.917273,2.04796 -2.048824,2.04796 H 19.336529 c -1.13198,0 -2.048395,-0.9177 -2.048395,-2.04796 V 45.97854 c 0,-3.91775 0.394467,-7.512935 1.172087,-10.686867 0.797529,-3.25443 2.021755,-6.099927 3.637583,-8.457708 1.662665,-2.423099 3.74243,-4.324537 6.181999,-5.649169 2.456042,-1.332652 5.312136,-2.008576 8.488217,-2.008576 1.130837,0 2.04811,0.916844 2.04811,2.048395 z m 26.423034,10.391949 c 1.13098,0 2.04897,-0.917704 2.04897,-2.048398 v -8.343407 c 0,-1.131552 -0.917847,-2.048395 -2.04897,-2.048395 -3.17479,0 -6.031315,0.676066 -8.486497,2.008576 -2.44,1.324633 -4.52091,3.22607 -6.183863,5.649167 -1.615255,2.357782 -2.83948,5.203421 -3.637153,8.458568 -0.77719,3.174936 -1.171657,6.77012 -1.171657,10.686008 v 17.616692 c 0,1.13098 0.91756,2.047965 2.048825,2.047965 h 17.430202 c 1.13098,0 2.04811,-0.9177 2.04811,-2.047965 V 45.97854 c 0,-1.13098 -0.916987,-2.048827 -2.04811,-2.048827 h -6.444404 c 0.29979,-8.172385 2.463777,-12.313149 6.444547,-12.313149 z" />
</svg>