<?xml version="1.0" encoding="UTF-8"?>
<!--https://github.com/muchdogesec/stix2icons/-->
<svg width="200" height="200" xmlns="http://www.w3.org/2000/svg" viewBox="0 0 85 85" id="mutex">
	<path style="fill:rgb(255,255,255)" d="m 61.888506,40.843107 c -0.648337,-0.648216 -1.435074,-0.97208 -2.361426,-0.97208 h -1.110479 v -6.667133 c 0,-4.25925 -1.527381,-7.916376 -4.583115,-10.971988 -3.05549,-3.055734 -6.712252,-4.583601 -10.97211,-4.583601 -4.259736,0 -7.917227,1.527867 -10.972475,4.583479 -3.055733,3.055734 -4.583114,6.712739 -4.583114,10.97211 v 6.667133 h -1.110966 c -0.925622,0 -1.712845,0.323864 -2.36106,0.97208 -0.648216,0.647729 -0.972202,1.434952 -0.972202,2.361425 v 20.000061 c 0,0.925622 0.324108,1.713089 0.972202,2.361426 0.648215,0.647607 1.435438,0.971836 2.36106,0.971836 h 33.33311 c 0.926352,0 1.712967,-0.323864 2.361426,-0.971836 0.647607,-0.648337 0.972201,-1.435804 0.972201,-2.361426 V 43.204168 c 4.87e-4,-0.925744 -0.324594,-1.712846 -0.973052,-2.361061 z M 51.750198,39.871027 H 33.972555 v -6.667133 c 0,-2.453611 0.86822,-4.548697 2.604294,-6.284527 1.736317,-1.736075 3.831038,-2.603929 6.284892,-2.603929 2.454098,0 4.548332,0.867733 6.284771,2.603929 1.735588,1.735709 2.603686,3.830916 2.603686,6.284527 z" />
</svg>