<?xml version="1.0" encoding="UTF-8"?>
<!--https://github.com/muchdogesec/stix2icons/-->
<svg width="200" height="200" xmlns="http://www.w3.org/2000/svg" viewBox="0 0 85 85" id="network-traffic">
	<path style="fill:rgb(255,255,255)" d="m 61.97246,40.961056 h -5.291749 v -3.78296 h 2.405546 c 2.306216,0 4.199983,-1.893651 4.199983,-4.218749 v -8.512459 c 0,-2.324982 -1.893767,-4.21875 -4.199983,-4.21875 h -8.549996 c -2.32498,0 -4.19998,1.893768 -4.19998,4.21875 v 8.512459 c 0,2.325098 1.875,4.218749 4.19998,4.218749 h 2.394448 v 3.78296 H 29.758713 v -3.78296 h 2.402574 c 2.324979,0 4.199979,-1.893651 4.199979,-4.218749 v -8.512459 c 0,-2.324982 -1.875,-4.21875 -4.199979,-4.21875 H 23.61129 c -2.324982,0 -4.199982,1.893768 -4.199982,4.21875 v 8.512459 c 0,2.325098 1.875,4.218749 4.199982,4.218749 h 2.397423 v 3.78296 h -5.286256 c -1.035461,0 -1.874999,0.838621 -1.874999,1.875 0,1.036376 0.839538,1.875002 1.874999,1.875002 h 18.753666 v 3.792114 h -2.402347 c -2.324979,0 -4.199983,1.893767 -4.199983,4.21875 v 8.512458 c 0,2.324979 1.875004,4.21875 4.199983,4.21875 h 8.549996 c 2.324979,0 4.199983,-1.893771 4.199983,-4.21875 v -8.512458 c 0,-2.324983 -1.875004,-4.21875 -4.199983,-4.21875 H 43.226119 V 44.711058 H 61.97246 c 1.035461,0 1.874998,-0.838626 1.874998,-1.875002 0,-1.036379 -0.839537,-1.875 -1.874998,-1.875 z" />
</svg>