<svg width="200" height="200" viewBox="0 0 200 200" fill="none" xmlns="http://www.w3.org/2000/svg">
<path d="M100 200C155.228 200 200 155.228 200 100C200 44.7715 155.228 0 100 0C44.7715 0 0 44.7715 0 100C0 155.228 44.7715 200 100 200Z" fill="#505657"/>
<path fill-rule="evenodd" clip-rule="evenodd" d="M37.647 140.565V60.0706C37.6779 54.2392 40.0081 48.6553 44.1317 44.5318C48.2552 40.4083 53.839 38.078 59.6705 38.0471H132.612L95.4117 75.2942C94.5479 76.1196 93.9708 77.1997 93.7646 78.3765L89.0587 105.129C88.8918 106.035 88.9472 106.968 89.22 107.848C89.4928 108.728 89.9749 109.528 90.6251 110.18C91.2752 110.833 92.0739 111.318 92.9527 111.594C93.8315 111.87 94.7641 111.928 95.6705 111.765L122.447 107.059C123.615 106.846 124.686 106.27 125.506 105.412L161.976 68.9412V140.329C161.945 146.165 159.612 151.752 155.483 155.877C151.355 160.001 145.765 162.328 139.929 162.353H59.4352C53.6642 162.328 48.1367 160.025 44.056 155.944C39.9752 151.863 37.6717 146.336 37.647 140.565V140.565ZM102.047 98.8236L104.4 85.5765L115.294 96.4706L102.047 98.8236ZM124.706 89.6706L111.059 75.9294L156.023 30.9412C156.109 30.8334 156.219 30.7463 156.343 30.6864C156.467 30.6265 156.603 30.5955 156.741 30.5955C156.879 30.5955 157.015 30.6265 157.139 30.6864C157.264 30.7463 157.373 30.8334 157.459 30.9412L169.765 43.2471C169.872 43.333 169.96 43.4422 170.019 43.5664C170.079 43.6907 170.11 43.8268 170.11 43.9647C170.11 44.1027 170.079 44.2388 170.019 44.363C169.96 44.4873 169.872 44.5964 169.765 44.6824L124.706 89.6706Z" fill="white"/>
</svg>
