<svg width="200" height="200" viewBox="0 0 200 200" fill="none" xmlns="http://www.w3.org/2000/svg">
<path d="M100 200C155.228 200 200 155.228 200 100C200 44.7715 155.228 0 100 0C44.7715 0 0 44.7715 0 100C0 155.228 44.7715 200 100 200Z" fill="black"/>
<path fill-rule="evenodd" clip-rule="evenodd" d="M32.9414 100C32.9414 86.737 36.8744 73.7719 44.2429 62.7441C51.6114 51.7164 62.0846 43.1213 74.338 38.0457C86.5914 32.9702 100.075 31.6422 113.083 34.2297C126.091 36.8172 138.04 43.2039 147.418 52.5823C156.796 61.9606 163.183 73.9094 165.771 86.9175C168.358 99.9256 167.03 113.409 161.955 125.662C156.879 137.916 148.284 148.389 137.256 155.757C126.228 163.126 113.263 167.059 100 167.059C91.1914 167.068 82.4671 165.34 74.327 161.973C66.1868 158.606 58.7906 153.667 52.5618 147.438C46.333 141.21 41.3938 133.813 38.0271 125.673C34.6603 117.533 32.9322 108.809 32.9414 100V100ZM153.13 100C153.13 89.492 150.014 79.22 144.176 70.4829C138.338 61.7458 130.04 54.9361 120.332 50.9148C110.624 46.8936 99.9413 45.8415 89.6352 47.8915C79.3291 49.9415 69.8624 55.0016 62.4321 62.4318C55.0018 69.8621 49.9417 79.3289 47.8917 89.635C45.8417 99.9411 46.8938 110.624 50.9151 120.332C54.9363 130.04 61.7461 138.338 70.4831 144.176C79.2202 150.013 89.4923 153.129 100 153.129C114.083 153.105 127.583 147.499 137.541 137.541C147.499 127.582 153.105 114.083 153.13 100V100ZM64.3532 100C64.3159 98.4277 64.3945 96.8548 64.5885 95.2941H98.8238V64.353H100C107.051 64.353 113.943 66.4436 119.805 70.3606C125.667 74.2775 130.236 79.8448 132.934 86.3585C135.632 92.8721 136.338 100.04 134.962 106.954C133.587 113.869 130.192 120.221 125.207 125.206C120.221 130.192 113.87 133.587 106.955 134.962C100.04 136.338 92.8724 135.632 86.3587 132.934C79.8451 130.236 74.2778 125.667 70.3608 119.804C66.4439 113.942 64.3532 107.05 64.3532 100V100Z" fill="white"/>
</svg>
