<svg width="200" height="200" viewBox="0 0 200 200" fill="none" xmlns="http://www.w3.org/2000/svg">
<path d="M100 200C155.228 200 200 155.228 200 100C200 44.7715 155.228 0 100 0C44.7715 0 0 44.7715 0 100C0 155.228 44.7715 200 100 200Z" fill="#505657"/>
<path fill-rule="evenodd" clip-rule="evenodd" d="M142.447 93.8824C142.447 91.5555 141.757 89.2809 140.464 87.3462C139.172 85.4115 137.334 83.9036 135.185 83.0132C133.035 82.1227 130.669 81.8898 128.387 82.3437C126.105 82.7976 124.009 83.9181 122.364 85.5634C120.718 87.2088 119.598 89.305 119.144 91.5872C118.69 93.8693 118.923 96.2348 119.813 98.3845C120.704 100.534 122.212 102.372 124.146 103.664C126.081 104.957 128.356 105.647 130.682 105.647C133.803 105.647 136.795 104.408 139.001 102.201C141.208 99.9949 142.447 97.0025 142.447 93.8824ZM111.694 93.8824C111.694 91.5555 111.004 89.2809 109.711 87.3462C108.419 85.4115 106.581 83.9036 104.432 83.0132C102.282 82.1227 99.9164 81.8898 97.6343 82.3437C95.3522 82.7976 93.2559 83.9181 91.6106 85.5634C89.9652 87.2088 88.8448 89.305 88.3908 91.5872C87.9369 93.8693 88.1699 96.2348 89.0603 98.3845C89.9507 100.534 91.4587 102.372 93.3934 103.664C95.328 104.957 97.6026 105.647 99.9295 105.647C103.05 105.647 106.042 104.408 108.248 102.201C110.455 99.9949 111.694 97.0025 111.694 93.8824ZM80.9177 93.8824C80.9177 91.5555 80.2277 89.2809 78.935 87.3462C77.6423 85.4115 75.8049 83.9036 73.6552 83.0132C71.5054 82.1227 69.1399 81.8898 66.8578 82.3437C64.5757 82.7976 62.4794 83.9181 60.8341 85.5634C59.1888 87.2088 58.0683 89.305 57.6144 91.5872C57.1604 93.8693 57.3934 96.2348 58.2838 98.3845C59.1743 100.534 60.6822 102.372 62.6169 103.664C64.5516 104.957 66.8262 105.647 69.153 105.647C72.2732 105.647 75.2656 104.408 77.4719 102.201C79.6782 99.9949 80.9177 97.0025 80.9177 93.8824ZM55.0354 170.894V135.365C38.7295 125.6 28.2354 110.588 28.2354 93.6471C28.2354 64.0706 60.4236 40 100 40C139.577 40 171.765 64.0706 171.765 93.6471C171.765 123.224 139.577 147.294 100 147.294C93.0114 147.377 86.0397 146.587 79.2471 144.941L55.0354 170.894Z" fill="white"/>
</svg>
