<?xml version="1.0" encoding="UTF-8"?>
<!--https://github.com/muchdogesec/stix2icons/-->
<svg xmlns="http://www.w3.org/2000/svg" viewBox="0 0 85 85" id="phone-number">
	<path style="fill:rgb(226,189,239)" d="m 64.72199,52.488848 c -0.122999,-0.0975 -9.052498,-6.534 -11.503499,-6.072 -1.17,0.207 -1.839001,1.005 -3.1815,2.6025 -0.216,0.258 -0.734999,0.876001 -1.1385,1.3155 a 18.775499,18.775499 0 0 1 -2.476499,-1.008 20.55,20.55 0 0 1 -9.4815,-9.4815 18.687001,18.687001 0 0 1 -1.008,-2.4765 c 0.440999,-0.405 1.058999,-0.923999 1.322999,-1.146 1.59,-1.334999 2.389501,-2.004 2.5965,-3.177 0.4245,-2.43 -6.0075,-11.421001 -6.075,-11.502001 a 3.4335,3.4335 0 0 0 -2.5575,-1.454999 c -2.607,0 -10.05,9.655501 -10.05,11.2815 0,0.0945 0.1365,9.7005 11.982001,21.75 12.037499,11.832002 21.641999,11.9685 21.736499,11.9685 1.6275,0 11.2815,-7.443 11.2815,-10.049999 A 3.4245,3.4245 0 0 0 64.72199,52.488848 Z" />
</svg>