<?xml version="1.0" encoding="UTF-8"?>
<!--https://github.com/muchdogesec/stix2icons/-->
<svg xmlns="http://www.w3.org/2000/svg" viewBox="0 0 85 85" id="process">
	<path style="fill:rgb(187,199,153)" d="m 49.28114,38.945113 v 4.186046 c 0,3.179303 2.576511,5.755814 5.755814,5.755814 H 59.223 c 3.179302,0 5.755814,-2.576511 5.755814,-5.755814 v -4.186046 c 0,-3.179303 -2.576512,-5.755814 -5.755814,-5.755814 h -4.186046 c -3.179303,0 -5.755814,2.576511 -5.755814,5.755814 z" />
 	<path style="fill:rgb(187,199,153)" d="m 19.978814,24.29395 v 4.186046 c 0,3.179303 2.576511,5.755814 5.755814,5.755814 h 4.186046 c 3.179303,0 5.755814,-2.576511 5.755814,-5.755814 V 24.29395 c 0,-3.179303 -2.576511,-5.755814 -5.755814,-5.755814 h -4.186046 c -3.179303,0 -5.755814,2.576511 -5.755814,5.755814 z" />
 	<path style="fill:rgb(187,199,153)" d="m 19.978814,53.596276 v 4.186046 c 0,3.179302 2.576511,5.755814 5.755814,5.755814 h 4.186046 c 3.179303,0 5.755814,-2.576512 5.755814,-5.755814 v -4.186046 c 0,-3.179303 -2.576511,-5.755814 -5.755814,-5.755814 h -4.186046 c -3.179303,0 -5.755814,2.576511 -5.755814,5.755814 z" />
 	<path style="fill:rgb(187,199,153)" d="m 27.746023,50.977903 0.08163,0.0021 0.06698,-0.0084 c 0.301395,-0.04186 1.502791,-0.297209 1.502791,-1.588604 v -2.065793 c 0,-1.249535 0.496046,-2.446744 1.379302,-3.33 0.883256,-0.883256 2.080465,-1.379303 3.33,-1.379303 h 16.744186 c 0.866512,0 1.569767,-0.703255 1.569767,-1.569767 0,-0.866512 -0.703255,-1.569767 -1.569767,-1.569767 H 34.106721 c -2.082558,0 -4.077209,0.826744 -5.550698,2.298139 -1.471395,1.473488 -2.29814,3.46814 -2.29814,5.550698 v 2.065814 0.01256 0.01465 c 0,0.108837 0.01046,0.215581 0.03349,0.31814 0.04186,0.223953 0.125582,0.408139 0.234419,0.558837 0.267907,0.397674 0.713721,0.665581 1.220233,0.690697 z" />
 	<path style="fill:rgb(187,199,153)" d="m 57.048349,36.326741 0.08163,0.0021 0.06698,-0.0084 c 0.301395,-0.04186 1.50279,-0.29721 1.50279,-1.588605 0,-0.154884 0,-0.983721 0,-2.065814 0,-2.082558 -0.826744,-4.077209 -2.298139,-5.550698 -1.473494,-1.471374 -3.468145,-2.298119 -5.550703,-2.298119 H 34.106721 c -0.866512,0 -1.569767,0.703256 -1.569767,1.569768 0,0.866511 0.703255,1.569768 1.569767,1.569768 h 16.744186 c 1.249535,0 2.446744,0.496046 3.33,1.379302 0.883256,0.883256 1.379302,2.080465 1.379302,3.33 v 2.065814 0.01256 0.01465 c 0,0.108837 0.01046,0.215582 0.03349,0.31814 0.04186,0.223953 0.125581,0.408139 0.234418,0.558837 0.267907,0.397674 0.713721,0.665581 1.220233,0.690698 z" />
	<path style="fill:rgb(187,199,153)" d="m 34.106721,57.259066 h 14.651163 c 0.634186,0 1.207674,-0.383023 1.450465,-0.96907 0.242791,-0.586046 0.108837,-1.262093 -0.341163,-1.71 L 45.68114,50.39395 c -0.611163,-0.613256 -1.607442,-0.613256 -2.218605,0 -0.613256,0.611163 -0.613256,1.607442 0,2.218605 l 1.504884,1.506976 H 34.106721 c -0.866512,0 -1.569767,0.703256 -1.569767,1.569768 0,0.866511 0.703255,1.569767 1.569767,1.569767 z" />
    <path style="fill:rgb(187,199,153)" d="m 47.648581,54.579996 -4.186046,4.186047 c -0.613256,0.611163 -0.613256,1.607442 0,2.218605 0.611163,0.613255 1.607442,0.613255 2.218605,0 l 4.186046,-4.186047 c 0.613256,-0.611163 0.613256,-1.607442 0,-2.218605 -0.611163,-0.613255 -1.607442,-0.613255 -2.218605,0 z" />
</svg>
