<svg width="200" height="200" viewBox="0 0 200 200" fill="none" xmlns="http://www.w3.org/2000/svg">
<path d="M100 200C155.228 200 200 155.228 200 100C200 44.7715 155.228 0 100 0C44.7715 0 0 44.7715 0 100C0 155.228 44.7715 200 100 200Z" fill="#CDD6D8"/>
<path d="M123.177 99.459C123.172 103.36 124.324 107.174 126.488 110.42C128.652 113.666 131.73 116.196 135.332 117.692C138.935 119.188 142.9 119.582 146.727 118.824C150.553 118.066 154.068 116.19 156.828 113.433C159.588 110.677 161.469 107.163 162.231 103.338C162.994 99.5124 162.605 95.5466 161.113 91.9423C159.622 88.338 157.094 85.2572 153.851 83.0895C150.608 80.9219 146.795 79.7649 142.894 79.7649C137.671 79.7711 132.663 81.8472 128.967 85.5386C125.271 89.2299 123.189 94.2355 123.177 99.459ZM117.482 124.871C112.717 120.122 109.382 114.129 107.859 107.577H92.1178C90.1247 116.17 85.0397 123.73 77.8317 128.816C70.6237 133.902 61.7965 136.158 53.0321 135.155C44.2676 134.152 36.1785 129.96 30.306 123.377C24.4334 116.794 21.188 108.281 21.188 99.459C21.188 90.6373 24.4334 82.1239 30.306 75.541C36.1785 68.958 44.2676 64.7656 53.0321 63.7626C61.7965 62.7595 70.6237 65.0159 77.8317 70.1018C85.0397 75.1878 90.1247 82.7478 92.1178 91.3413H107.859C109.652 83.5786 113.973 76.6313 120.142 71.5906C126.312 66.5499 133.981 63.7013 141.946 63.4921C149.91 63.283 157.718 65.7252 164.144 70.4352C170.57 75.1452 175.249 81.8561 177.447 89.514C179.645 97.1719 179.237 105.343 176.288 112.744C173.338 120.145 168.013 126.356 161.15 130.403C154.287 134.45 146.275 136.102 138.371 135.101C130.467 134.099 123.12 130.501 117.482 124.871Z" fill="white"/>
</svg>
