<svg width="200" height="200" viewBox="0 0 200 200" fill="none" xmlns="http://www.w3.org/2000/svg">
<path d="M100 200C155.228 200 200 155.228 200 100C200 44.7715 155.228 0 100 0C44.7715 0 0 44.7715 0 100C0 155.228 44.7715 200 100 200Z" fill="#769279"/>
<path fill-rule="evenodd" clip-rule="evenodd" d="M47.0588 144.776V37.6471H135.294C137.611 37.6284 139.908 38.0697 142.053 38.9455C144.198 39.8213 146.148 41.1141 147.789 42.7491C149.431 44.384 150.731 46.3285 151.616 48.4698C152.5 50.6112 152.951 52.9068 152.941 55.2235V162.353H64.7059C60.0378 162.353 55.5599 160.503 52.2524 157.209C48.945 153.915 47.0775 149.445 47.0588 144.776ZM104 124.824C103.988 123.325 103.391 121.891 102.335 120.827C101.28 119.763 99.8511 119.154 98.353 119.129H77.1765C75.6663 119.129 74.218 119.729 73.1501 120.797C72.0823 121.865 71.4824 123.313 71.4824 124.824C71.4824 126.334 72.0823 127.782 73.1501 128.85C74.218 129.918 75.6663 130.518 77.1765 130.518H98.353C99.8511 130.493 101.28 129.884 102.335 128.82C103.391 127.756 103.988 126.322 104 124.824V124.824ZM128.706 95.8353C128.694 94.337 128.096 92.9027 127.041 91.8388C125.986 90.7749 124.557 90.1657 123.059 90.1412H76.9412C75.4912 90.2343 74.1311 90.876 73.1372 91.9358C72.1433 92.9956 71.5901 94.3941 71.5901 95.8471C71.5901 97.3 72.1433 98.6985 73.1372 99.7583C74.1311 100.818 75.4912 101.46 76.9412 101.553H123.059C124.559 101.522 125.988 100.908 127.043 99.8403C128.097 98.7726 128.694 97.3359 128.706 95.8353ZM128.706 66.8706C128.688 65.3741 128.089 63.9433 127.035 62.8807C125.981 61.818 124.555 61.2069 123.059 61.1765H76.9412C75.4912 61.2696 74.1311 61.9113 73.1372 62.9711C72.1433 64.0309 71.5901 65.4294 71.5901 66.8823C71.5901 68.3353 72.1433 69.7338 73.1372 70.7936C74.1311 71.8534 75.4912 72.4951 76.9412 72.5882H123.059C124.561 72.5636 125.994 71.9511 127.05 70.8822C128.105 69.8132 128.7 68.373 128.706 66.8706V66.8706Z" fill="white"/>
</svg>
