<svg width="200" height="200" viewBox="0 0 200 200" fill="none" xmlns="http://www.w3.org/2000/svg">
<path d="M100 200C155.228 200 200 155.228 200 100C200 44.7715 155.228 0 100 0C44.7715 0 0 44.7715 0 100C0 155.228 44.7715 200 100 200Z" fill="#EB5E2A"/>
<path d="M74.1647 155.106L44.9883 47.3412C44.4578 45.3755 44.73 43.2795 45.7449 41.5145C46.7598 39.7494 48.4343 38.4599 50.4 37.9294C52.3658 37.399 54.4617 37.6712 56.2267 38.6861C57.9918 39.701 59.2814 41.3755 59.8118 43.3412L60.5177 46.4C77.9294 36.9882 88.2824 41.4588 98.1647 47.3412C108.047 53.2235 116.753 59.8118 131.812 55.3412L135.577 54.1647C136.348 53.8887 137.167 53.7742 137.985 53.8282C138.802 53.8822 139.599 54.1036 140.327 54.4787C141.056 54.8538 141.699 55.3746 142.217 56.0086C142.736 56.6427 143.118 57.3766 143.341 58.1647L157.224 109.694C157.641 111.191 157.457 112.793 156.709 114.156C155.962 115.519 154.711 116.535 153.224 116.988L149.459 118.165H148.988C146.4 118.635 144.047 119.106 141.459 119.341C124.988 120.518 113.694 112.753 103.577 108.518C95.8118 105.224 88.2824 103.812 78.8706 108.753L77.4588 109.459L88.753 151.106C89.0165 152.079 89.0855 153.095 88.956 154.095C88.8266 155.095 88.5012 156.06 87.9986 156.934C87.4959 157.808 86.8259 158.575 86.0267 159.189C85.2275 159.804 84.315 160.256 83.3412 160.518C82.3831 160.779 81.3824 160.845 80.3983 160.713C79.4141 160.58 78.4664 160.252 77.6111 159.748C76.7558 159.244 76.0102 158.573 75.4182 157.776C74.8263 156.978 74.4001 156.071 74.1647 155.106V155.106Z" fill="white"/>
</svg>
