<svg width="200" height="200" viewBox="0 0 200 200" fill="none" xmlns="http://www.w3.org/2000/svg">
<path d="M100 200C155.228 200 200 155.228 200 100C200 44.7715 155.228 0 100 0C44.7715 0 0 44.7715 0 100C0 155.228 44.7715 200 100 200Z" fill="#E61B5C"/>
<path fill-rule="evenodd" clip-rule="evenodd" d="M154.824 133.035C159.948 124.255 162.864 114.362 163.323 104.207C163.782 94.0512 161.77 83.9359 157.459 74.7293L167.059 44.1411L142.588 49.5293L138.259 50.494C136.21 48.8839 134.039 47.4364 131.765 46.1646C120.955 39.9256 108.547 37.009 96.0893 37.779C83.6319 38.5489 71.6773 42.9713 61.7179 50.494L57.3885 49.5293L32.9414 44.0234L42.5414 74.7293C35.7994 89.5052 34.9908 106.306 40.2827 121.661C45.5746 137.017 56.5627 149.752 70.9765 157.237C85.3904 164.722 102.129 166.384 117.733 161.88C133.337 157.376 146.615 147.05 154.824 133.035V133.035ZM108.047 135.176H91.7649C90.9785 135.227 90.1901 135.115 89.4484 134.849C88.7068 134.583 88.0276 134.167 87.4529 133.628C86.8781 133.089 86.42 132.437 86.1068 131.714C85.7937 130.991 85.6321 130.211 85.6321 129.423C85.6321 128.635 85.7937 127.856 86.1068 127.133C86.42 126.409 86.8781 125.758 87.4529 125.219C88.0276 124.68 88.7068 124.264 89.4484 123.998C90.1901 123.732 90.9785 123.62 91.7649 123.67H108.094C109.557 123.764 110.928 124.411 111.931 125.479C112.933 126.548 113.491 127.958 113.491 129.423C113.491 130.889 112.933 132.299 111.931 133.367C110.928 134.436 109.557 135.083 108.094 135.176H108.047ZM110.188 103.765C109.666 102.866 109.327 101.873 109.19 100.843C109.052 99.8134 109.12 98.7664 109.389 97.7626C109.658 96.7589 110.123 95.8183 110.757 94.9948C111.391 94.1714 112.181 93.4814 113.083 92.9646L127.2 84.7999C128.099 84.2396 129.102 83.8657 130.148 83.7004C131.194 83.5351 132.263 83.5817 133.291 83.8376C134.319 84.0934 135.285 84.5532 136.132 85.1897C136.979 85.8262 137.689 86.6264 138.221 87.5427C138.752 88.459 139.094 89.4728 139.226 90.5239C139.358 91.5749 139.278 92.6418 138.989 93.6611C138.701 94.6805 138.211 95.6314 137.548 96.4576C136.885 97.2838 136.062 97.9683 135.13 98.4705L121.012 106.635C120.115 107.165 119.121 107.512 118.089 107.654C117.057 107.797 116.007 107.733 114.999 107.466C113.992 107.198 113.048 106.734 112.222 106.098C111.396 105.463 110.705 104.67 110.188 103.765V103.765ZM78.7767 106.635L64.6591 98.4705C62.8337 97.4283 61.4972 95.7038 60.9434 93.6762C60.3896 91.6486 60.664 89.484 61.7061 87.6587C62.7483 85.8334 64.4728 84.4968 66.5004 83.943C68.528 83.3893 70.6926 83.6636 72.5179 84.7058L86.6355 92.8705C88.3385 93.9724 89.5528 95.6867 90.0273 97.6588C90.5017 99.631 90.2 101.71 89.1845 103.466C88.1691 105.222 86.5175 106.52 84.5716 107.093C82.6256 107.665 80.5341 107.468 78.7296 106.541L78.7767 106.635Z" fill="white"/>
</svg>
