<?xml version="1.0" encoding="UTF-8"?>
<!--https://github.com/muchdogesec/stix2icons/-->
<svg xmlns="http://www.w3.org/2000/svg" viewBox="0 0 85 85" id="tool">
  <path style="fill:rgb(255,255,255)" d="M16.46,68.51l-.6-.6a6.29,6.29,0,0,1,0-8.93L26.28,48.57A2.94,2.94,0,0,1,31,45.29l1.79,1.79,2.68-2.68-4.07-4.07a13.39,13.39,0,0,1-12.9-3.47,13.13,13.13,0,0,1-3.87-10.42v-.1l.1-.89a1.35,1.35,0,0,1,2.28-.79l5,5a3.67,3.67,0,0,0,5.26,0l3-3a3.67,3.67,0,0,0,0-5.26l-5-5a1.34,1.34,0,0,1,.79-2.28L27,14h.1A13.36,13.36,0,0,1,41,30.81L45,34.88l12-12a2.13,2.13,0,0,1,.29-2.78l5-5,7.05,7-5,5a2.39,2.39,0,0,1-2.78.29l-12,11.81L69.14,58.79a6.29,6.29,0,0,1,0,8.93l-.6.59a6.29,6.29,0,0,1-8.93,0L40.07,48.77l-2.68,2.67,1.79,1.79A2.94,2.94,0,0,1,35.9,58L25.48,68.41A6.31,6.31,0,0,1,16.46,68.51Zm49.9-2.78a3.37,3.37,0,1,0-4.76,0A3.41,3.41,0,0,0,66.36,65.73Z"/>
</svg>