<svg width="200" height="200" viewBox="0 0 200 200" fill="none" xmlns="http://www.w3.org/2000/svg">
<path d="M100 200C155.228 200 200 155.228 200 100C200 44.7715 155.228 0 100 0C44.7715 0 0 44.7715 0 100C0 155.228 44.7715 200 100 200Z" fill="#57509D"/>
<path fill-rule="evenodd" clip-rule="evenodd" d="M38.7298 161.2L37.3181 159.788C35.9315 158.412 34.831 156.776 34.08 154.973C33.329 153.17 32.9424 151.236 32.9424 149.282C32.9424 147.329 33.329 145.395 34.08 143.592C34.831 141.789 35.9315 140.152 37.3181 138.776L61.8357 114.282C61.2275 112.823 61.1377 111.199 61.5812 109.681C62.0248 108.163 62.975 106.843 64.2735 105.941C65.5721 105.038 67.1406 104.608 68.7178 104.722C70.295 104.835 71.7857 105.486 72.9416 106.565L77.1534 110.776L83.4592 104.471L73.8828 94.8941C68.5515 96.3094 62.942 96.3001 57.6154 94.8673C52.2888 93.4345 47.4317 90.6283 43.5298 86.7294C40.3113 83.5574 37.8278 79.7179 36.2544 75.4817C34.6811 71.2455 34.0563 66.7157 34.4239 62.2118V61.9765L34.6592 59.8824C34.7366 59.2984 34.9748 58.7475 35.3472 58.2912C35.7197 57.8348 36.2117 57.491 36.7682 57.2982C37.3248 57.1053 37.924 57.071 38.499 57.1991C39.0739 57.3272 39.6019 57.6127 40.0239 58.0235L51.7887 69.7882C52.5933 70.615 53.5555 71.2721 54.6183 71.7209C55.6812 72.1696 56.8232 72.4007 57.9769 72.4007C59.1306 72.4007 60.2726 72.1696 61.3354 71.7209C62.3983 71.2721 63.3605 70.615 64.1651 69.7882L71.2239 62.7294C72.0507 61.9248 72.7079 60.9626 73.1566 59.8997C73.6053 58.8369 73.8364 57.6949 73.8364 56.5412C73.8364 55.3875 73.6053 54.2455 73.1566 53.1826C72.7079 52.1198 72.0507 51.1576 71.2239 50.353L59.4592 38.5882C59.0394 38.1698 58.746 37.6415 58.6128 37.0639C58.4795 36.4863 58.5117 35.8829 58.7058 35.3228C58.8999 34.7627 59.2479 34.2687 59.7099 33.8974C60.172 33.5261 60.7293 33.2925 61.3181 33.2235L63.5298 32.9412H63.7651C68.7785 32.5636 73.8093 33.3941 78.4354 35.3628C83.0614 37.3315 87.1478 40.3811 90.3516 44.2556C93.5555 48.1302 95.7832 52.7166 96.848 57.6301C97.9128 62.5437 97.7835 67.6409 96.471 72.4941L105.883 82.0706L134.118 53.8353C133.424 52.8459 133.111 51.6391 133.236 50.4371C133.362 49.2351 133.917 48.1189 134.8 47.2941L146.565 35.5294L163.153 52L151.389 63.7647C150.508 64.5506 149.402 65.0393 148.228 65.1618C147.054 65.2843 145.871 65.0342 144.847 64.4471L116.612 92.2353L162.683 138.329C164.069 139.705 165.17 141.342 165.921 143.145C166.672 144.948 167.058 146.882 167.058 148.835C167.058 150.789 166.672 152.723 165.921 154.526C165.17 156.329 164.069 157.965 162.683 159.341L161.271 160.729C159.895 162.116 158.259 163.216 156.455 163.967C154.652 164.718 152.718 165.105 150.765 165.105C148.812 165.105 146.878 164.718 145.075 163.967C143.272 163.216 141.635 162.116 140.259 160.729L94.2828 114.753L87.9769 121.035L92.1887 125.247C93.3449 126.388 94.0629 127.899 94.2168 129.516C94.3707 131.133 93.9507 132.753 93.0304 134.091C92.1101 135.43 90.7481 136.401 89.1832 136.836C87.6182 137.271 85.9501 137.142 84.471 136.471L59.9534 160.965C58.5865 162.393 56.9481 163.534 55.1343 164.321C53.3206 165.107 51.368 165.524 49.3911 165.546C47.4142 165.568 45.4528 165.195 43.6221 164.448C41.7913 163.702 40.128 162.598 38.7298 161.2V161.2ZM156.142 154.659C157.253 153.551 158.01 152.138 158.317 150.599C158.625 149.06 158.469 147.465 157.869 146.015C157.27 144.565 156.253 143.325 154.949 142.453C153.645 141.581 152.111 141.116 150.542 141.116C148.972 141.116 147.439 141.581 146.134 142.453C144.83 143.325 143.813 144.565 143.214 146.015C142.614 147.465 142.458 149.06 142.766 150.599C143.074 152.138 143.831 153.551 144.942 154.659C146.44 156.119 148.449 156.936 150.542 156.936C152.634 156.936 154.643 156.119 156.142 154.659Z" fill="white"/>
</svg>
