<?xml version="1.0" encoding="UTF-8"?>
<!--https://github.com/muchdogesec/stix2icons/-->
<svg xmlns="http://www.w3.org/2000/svg" viewBox="0 0 85 85" id="url">
  <path style="fill:rgb(206,207,241)" d="m 66.432564,35.463562 v -0.0176 c -0.545831,-3.22909 -3.314044,-6.09788 -6.436706,-6.673 h -0.01855 c -1.741973,-0.30172 -16.087861,-0.51166 -18.054415,-0.51361 -1.966555,-0.002 -16.306584,0.21189 -18.049533,0.51361 h -0.01855 c -3.124615,0.57512 -5.893805,3.44488 -6.444519,6.673 v 0.0176 a 42.106138,42.106138 0 0 0 -0.488221,6.62809 42.064151,42.064151 0 0 0 0.488221,6.62613 v 0.0176 c 0.550714,3.23007 3.319904,6.09983 6.444519,6.67496 h 0.01855 c 1.741972,0.30172 16.087861,0.51165 18.054415,0.51361 1.966555,0.002 16.306584,-0.21189 18.049533,-0.51361 h 0.01855 c 3.124614,-0.57513 5.890875,-3.44489 6.436706,-6.67301 v -0.0176 a 42.106138,42.106138 0 0 0 0.488221,-6.63005 42.100279,42.100279 0 0 0 -0.488221,-6.62613 z m -32.397374,4.51897 -1.329914,4.66837 a 1.6599516,1.6599516 0 0 1 -1.587695,1.1981 h -0.08495 a 1.6472579,1.6472579 0 0 1 -1.520321,-1.00672 l -1.36116,-3.21542 -1.337726,3.20761 a 1.645305,1.645305 0 0 1 -1.52325,1.01453 h -0.09179 a 1.6599516,1.6599516 0 0 1 -1.587695,-1.20005 l -1.318197,-4.66837 a 1.2928094,1.2928094 0 0 1 1.246916,-1.64628 1.2957387,1.2957387 0 0 1 1.249846,0.95789 l 0.736238,2.74185 1.108262,-2.67643 a 1.6501872,1.6501872 0 0 1 3.047476,0 l 1.121932,2.6901 0.737214,-2.74673 a 1.2947623,1.2947623 0 1 1 2.494809,0.69034 z m 12.506271,0 -1.329914,4.66837 a 1.6599516,1.6599516 0 0 1 -1.587695,1.1981 h -0.08495 a 1.6472579,1.6472579 0 0 1 -1.522274,-1.00672 l -1.357254,-3.21542 -1.339679,3.20761 a 1.6433521,1.6433521 0 0 1 -1.522273,1.01453 h -0.09276 a 1.6599516,1.6599516 0 0 1 -1.587695,-1.20005 l -1.321126,-4.66837 a 1.2947623,1.2947623 0 1 1 2.496762,-0.68351 l 0.736238,2.74185 1.111191,-2.68131 a 1.6501872,1.6501872 0 0 1 3.047476,0 l 1.121932,2.6901 0.73819,-2.74673 a 1.2938102,1.2938102 0 1 1 2.493833,0.69034 z m 11.159758,4.66837 a 1.6599516,1.6599516 0 0 1 -1.587695,1.1981 h -0.08495 a 1.6472579,1.6472579 0 0 1 -1.52032,-1.00672 l -1.360184,-3.21542 -1.339679,3.20761 a 1.6443286,1.6443286 0 0 1 -1.52325,1.01453 h -0.09179 a 1.6599516,1.6599516 0 0 1 -1.587695,-1.20005 l -1.316244,-4.66837 a 1.2947623,1.2947623 0 1 1 2.496763,-0.68351 l 0.736237,2.74185 1.107285,-2.68131 a 1.6501872,1.6501872 0 0 1 3.047476,0 l 1.121932,2.6901 0.737214,-2.74673 a 1.2947623,1.2947623 0 1 1 2.49481,0.69034 z m 2.831682,0.91395 a 1.4548988,1.4548988 0 1 1 1.454899,-1.4549 1.4548988,1.4548988 0 0 1 -1.453923,1.4549 z" />
</svg>
