<?xml version="1.0" encoding="UTF-8"?>
<!--https://github.com/muchdogesec/stix2icons/-->
<svg width="200" height="200" xmlns="http://www.w3.org/2000/svg" viewBox="0 0 85 85" id="user-account">
	<path style="fill:rgb(255,255,255)" d="m 41.667835,40.383039 c 3.172815,0 5.920222,-1.137955 8.165042,-3.383141 2.244819,-2.24482 3.382776,-4.991495 3.382776,-8.164677 0,-3.172083 -1.137957,-5.919125 -3.383142,-8.164676 -2.245185,-2.244454 -4.992226,-3.382409 -8.164676,-3.382409 -3.17318,0 -5.919856,1.137955 -8.164676,3.382775 -2.244819,2.244819 -3.383141,4.991861 -3.383141,8.16431 0,3.173182 1.138322,5.920223 3.383507,8.165043 2.245186,2.244453 4.992226,3.382775 8.16431,3.382775 z m 0,0" />
	<path style="fill:rgb(255,255,255)" d="m 61.873407,54.154826 c -0.06475,-0.934214 -0.195696,-1.953289 -0.388464,-3.029428 -0.194598,-1.084185 -0.44516,-2.109113 -0.745103,-3.045887 -0.309819,-0.968232 -0.731203,-1.924393 -1.252081,-2.840683 -0.540629,-0.95104 -1.175631,-1.779176 -1.888179,-2.460632 -0.745103,-0.712914 -1.65737,-1.286098 -2.712293,-1.70419 -1.051264,-0.415898 -2.216288,-0.626589 -3.462516,-0.626589 -0.48942,0 -0.962744,0.200816 -1.87684,0.795947 -0.562577,0.366882 -1.220623,0.791192 -1.955118,1.260494 -0.628052,0.400168 -1.478867,0.775097 -2.529766,1.114545 -1.025294,0.331767 -2.066317,0.500027 -3.093806,0.500027 -1.027488,0 -2.068145,-0.16826 -3.094537,-0.500027 -1.049801,-0.339082 -1.900616,-0.714012 -2.527937,-1.11418 -0.727544,-0.464912 -1.385957,-0.889222 -1.956946,-1.261225 -0.912998,-0.595131 -1.386689,-0.795947 -1.876109,-0.795947 -1.246593,0 -2.411252,0.211057 -3.462151,0.627321 -1.054191,0.41736 -1.966823,0.990544 -2.712658,1.70419 -0.712182,0.681822 -1.34755,1.509593 -1.887448,2.460266 -0.520511,0.91629 -0.941895,1.872086 -1.25208,2.841048 -0.299578,0.936775 -0.55014,1.961337 -0.744737,3.045522 -0.192769,1.074676 -0.32372,2.094117 -0.388463,3.030526 -0.06365,0.917387 -0.09584,1.869524 -0.09584,2.831171 0,2.502698 0.795581,4.528779 2.364431,6.023008 1.549463,1.474477 3.599685,2.222507 6.092873,2.222507 h 23.085392 c 2.493188,0 4.542678,-0.747663 6.092508,-2.222507 1.569215,-1.493132 2.364796,-3.519579 2.364796,-6.023373 -3.65e-4,-0.966038 -0.03292,-1.918906 -0.09693,-2.831904 z m 0,0" />
</svg>