<?xml version="1.0" encoding="UTF-8"?>
<!--https://github.com/muchdogesec/stix2icons/-->
<svg width="200" height="200" xmlns="http://www.w3.org/2000/svg" viewBox="0 0 85 85" id="weakness">
	<path style="fill:rgb(255,255,255)" d="m 45.212554,49.143026 c -0.250782,-0.08973 -0.531933,-0.02715 -0.719674,0.162433 l -8.869847,8.868926 c -0.9838,0.98426 -2.293846,1.524936 -3.689021,1.524936 -1.395174,0 -2.70476,-0.541596 -3.6881,-1.524936 -2.033862,-2.034782 -2.033862,-5.344179 0,-7.378041 l 8.868466,-8.867546 c 0.188662,-0.188661 0.251702,-0.469353 0.161973,-0.720134 -0.08973,-0.251242 -0.316583,-0.4284 -0.581629,-0.454168 l -6.192235,-0.61522 c -0.207528,-0.02393 -0.409994,0.052 -0.556321,0.198784 l -6.079959,6.079499 c -2.15166,2.1512 -3.336546,5.016552 -3.336546,8.067805 0,3.051253 1.184886,5.916146 3.336546,8.067806 2.1512,2.15166 5.016553,3.336546 8.067805,3.336546 3.051253,0 5.916606,-1.184886 8.068266,-3.336546 l 6.079959,-6.079498 c 0.146328,-0.145868 0.219491,-0.351095 0.198785,-0.556321 l -0.6143,-6.192696 c -0.02669,-0.265046 -0.202466,-0.49144 -0.454168,-0.581629 z" />
	<path style="fill:rgb(255,255,255)" d="m 62.19346,24.226376 c -2.15166,-2.15166 -5.017013,-3.336545 -8.068266,-3.336545 -3.051253,0 -5.916605,1.184885 -8.067805,3.336545 l -6.080419,6.079959 c -0.146328,0.145868 -0.219491,0.350634 -0.198785,0.556321 l 0.615221,6.192696 c 0.02623,0.265506 0.203386,0.4919 0.454628,0.581629 0.251241,0.09019 0.531472,0.02715 0.720134,-0.161972 l 8.868006,-8.869387 c 0.9838,-0.983801 2.293846,-1.525397 3.68902,-1.525397 1.395175,0 2.705221,0.542057 3.689481,1.525397 2.033862,2.033862 2.033862,5.343259 0,7.377581 l -8.868926,8.868466 c -0.188662,0.188662 -0.251702,0.469813 -0.161973,0.720595 0.08973,0.250781 0.316583,0.427939 0.581629,0.453707 l 6.191776,0.615221 c 0.02301,0.0032 0.04555,0.0041 0.06764,0.0041 0.182219,0 0.357996,-0.07178 0.488679,-0.202006 l 6.079958,-6.080419 c 4.448268,-4.448727 4.448268,-11.687804 0,-16.136532 z" />
	<path style="fill:rgb(255,255,255)" d="m 24.597845,38.235636 c 0.0041,0 0.0083,0 0.01196,0 l 7.451665,-0.129762 c 0.340971,-0.006 0.626724,-0.259985 0.671819,-0.598655 0.04509,-0.33821 -0.163354,-0.658934 -0.49098,-0.754646 l -7.154869,-2.086319 c -0.193263,-0.0566 -0.40171,-0.02577 -0.569665,0.08467 -0.168415,0.109516 -0.280691,0.287133 -0.30738,0.486838 l -0.296797,2.216082 c -0.02669,0.199705 0.03497,0.40033 0.168875,0.550339 0.130683,0.147248 0.318424,0.231455 0.515368,0.231455 z" />
	<path style="fill:rgb(255,255,255)" d="m 36.393784,32.602483 c 0.08651,0.297257 0.359377,0.496962 0.662155,0.496962 0.03037,0 0.0612,-0.0018 0.09203,-0.0064 0.33821,-0.04509 0.592673,-0.330847 0.598655,-0.671818 l 0.129302,-7.451709 c 0.0032,-0.201545 -0.08099,-0.393888 -0.231455,-0.527331 -0.150469,-0.133444 -0.351094,-0.195564 -0.550799,-0.167955 l -2.216082,0.298177 c -0.199244,0.02669 -0.376862,0.139425 -0.486378,0.30784 -0.109515,0.168415 -0.140346,0.376403 -0.08421,0.569205 z" />
	<path style="fill:rgb(255,255,255)" d="m 61.449858,48.543911 -7.451205,0.129302 c -0.341431,0.0064 -0.626724,0.259524 -0.672278,0.598655 -0.04556,0.33821 0.162893,0.658934 0.490519,0.755106 l 7.154869,2.086779 c 0.06396,0.01794 0.128381,0.02761 0.193263,0.02761 0.132983,0 0.263205,-0.03819 0.376402,-0.111817 0.168415,-0.109515 0.280231,-0.287133 0.30738,-0.487298 l 0.297257,-2.215621 c 0.02669,-0.200166 -0.03497,-0.400331 -0.168875,-0.55034 -0.133904,-0.151849 -0.334989,-0.241118 -0.527332,-0.232375 z" />
	<path style="fill:rgb(255,255,255)" d="m 49.665423,54.177984 c -0.09525,-0.327626 -0.413214,-0.540215 -0.754185,-0.490519 -0.33775,0.04601 -0.592213,0.331308 -0.598655,0.672279 l -0.129302,7.450284 c -0.0032,0.201546 0.08099,0.393888 0.230995,0.527332 0.127001,0.113197 0.291275,0.174857 0.459229,0.174857 0.03037,0 0.0612,-0.0023 0.09203,-0.0069 l 2.215621,-0.297257 c 0.199705,-0.02669 0.377323,-0.138965 0.487299,-0.30738 0.109516,-0.168875 0.140346,-0.376863 0.08467,-0.569205 z" />
</svg>