<?xml version="1.0" encoding="UTF-8"?>
<!--https://github.com/muchdogesec/stix2icons/-->
<svg xmlns="http://www.w3.org/2000/svg" viewBox="0 0 85 85" id="windows-registry-key">
	<path style="fill:rgb(132,196,170)" d="m 41.533493,33.289012 -9.005748,-4.409625 v 9.95424 l 9.005748,4.007623 z" />
    <path style="fill:rgb(132,196,170)" d="m 21.120183,57.750373 8.415226,3.7422 V 51.93972 l -9.005748,-4.409625 v 9.311424 c 0,0.393037 0.23141,0.749161 0.590522,0.908854 z" />
  	<path style="fill:rgb(132,196,170)" d="m 41.533493,47.529392 -9.014097,4.410592 v 9.553907 l 9.014097,-4.002964 z" />
  	<path style="fill:rgb(132,196,170)" d="m 39.498789,45.202811 -8.459346,-3.761799 -8.474199,3.763205 8.462334,4.143586 z" />
  	<path style="fill:rgb(132,196,170)" d="m 65.529661,47.692777 -9.022271,4.26162 v 9.539494 l 8.336566,-3.702122 c 0.416942,-0.185181 0.685705,-0.598608 0.685705,-1.054837 z" />
  	<path style="fill:rgb(132,196,170)" d="m 51.476658,26.716454 -7.622472,-3.448301 c -0.534537,-0.241781 -1.146416,-0.245912 -1.684117,-0.01125 l -7.582308,3.308559 8.449414,4.137258 z" />
  	<path style="fill:rgb(132,196,170)" d="m 63.494605,45.353891 -8.474374,-3.909715 -8.46708,3.760041 8.473847,4.149211 z" />
  	<path style="fill:rgb(132,196,170)" d="m 44.525302,57.49119 8.998013,4.001383 V 51.93972 l -9.004253,-4.408921 z" />
  	<path style="fill:rgb(132,196,170)" d="m 53.539926,38.836527 v -9.794458 l -9.022358,4.261532 v 9.539494 l 3.989957,-1.77183 z" />
</svg>
