<?xml version="1.0" encoding="UTF-8"?>
<!--https://github.com/muchdogesec/stix2icons/-->
<svg xmlns="http://www.w3.org/2000/svg" viewBox="0 0 85 85" id="x509-certificate">
	<path style="fill:rgb(246,160,242)" d="m 38.143916,22.092517 c 2.455799,-2.298501 6.273297,-2.298501 8.729096,0 l 2.126549,1.990327 c 0.5994,0.56097 1.3821,0.88518 2.202599,0.912322 l 2.911049,0.09632 c 3.361799,0.111232 6.061197,2.810609 6.172422,6.172407 l 0.0963,2.911124 c 0.02715,0.820425 0.351375,1.603124 0.9123,2.202524 l 1.990349,2.126549 c 2.298523,2.455799 2.298523,6.273297 0,8.729096 l -1.990349,2.126549 c -0.560925,0.5994 -0.88515,1.3821 -0.9123,2.202599 l -0.0963,2.911049 c -0.111225,3.361799 -2.810623,6.061197 -6.172422,6.172422 l -2.911124,0.0963 c -0.820424,0.02715 -1.603124,0.351375 -2.202524,0.9123 l -2.126549,1.990344 c -2.455799,2.298523 -6.273297,2.298523 -8.729096,0 L 36.017367,61.6544 c -0.5994,-0.560925 -1.382099,-0.88515 -2.202524,-0.9123 l -2.911124,-0.0963 c -3.361798,-0.111225 -6.061174,-2.810623 -6.172407,-6.172422 l -0.09631,-2.911049 C 24.607862,50.74183 24.28365,49.95913 23.72268,49.35973 l -1.990327,-2.126549 c -2.298501,-2.455799 -2.298501,-6.273297 0,-8.729096 l 1.990327,-2.126549 c 0.56097,-0.5994 0.88518,-1.382099 0.912322,-2.202524 l 0.09631,-2.911124 c 0.111233,-3.361798 2.810609,-6.061175 6.172407,-6.172407 l 2.911124,-0.09632 c 0.820425,-0.02714 1.603124,-0.351352 2.202524,-0.912322 z M 51.85346,37.893735 c 0.566175,-0.604724 0.5349,-1.553999 -0.0699,-2.120099 -0.604724,-0.566175 -1.553999,-0.5349 -2.120099,0.0699 L 39.52444,46.673831 35.353468,42.218533 c -0.5661,-0.6048 -1.515374,-0.636075 -2.1201,-0.0699 -0.6048,0.5661 -0.636074,1.515375 -0.0699,2.1201 l 5.265898,5.624997 c 0.283649,0.303 0.680099,0.4749 1.095074,0.4749 0.414974,0 0.811424,-0.1719 1.094999,-0.4749 z" />
</svg>