<svg width="200" height="200" viewBox="0 0 200 200" fill="none" xmlns="http://www.w3.org/2000/svg">
<circle cx="100" cy="100" r="100" fill="#6661AB"/>
<path d="M108.429 40C108.429 40 112.591 54.9079 112.591 66.987C112.591 78.5784 104.999 87.9751 93.4077 87.9751C90.681 87.9673 87.9833 87.4147 85.473 86.3499C82.9628 85.2851 80.6906 83.7294 78.79 81.7742C76.8893 79.819 75.3985 77.5038 74.4051 74.9644C73.4116 72.4251 72.9356 69.7129 73.0049 66.987L73.1674 64.9711C61.3981 78.9659 54.9647 96.6763 55.0081 114.962C54.8944 120.942 55.9742 126.885 58.1842 132.444C60.3942 138.002 63.6901 143.064 67.8792 147.333C72.0684 151.603 77.0667 154.994 82.5819 157.31C88.0971 159.625 94.0185 160.817 100 160.817C105.981 160.817 111.903 159.625 117.418 157.31C122.933 154.994 127.932 151.603 132.121 147.333C136.31 143.064 139.606 138.002 141.816 132.444C144.026 126.885 145.106 120.942 144.992 114.962C144.907 100.525 141.577 86.2927 135.248 73.3171C128.919 60.3414 119.753 48.9548 108.429 40V40ZM102.983 143.087C101.086 143.119 99.2004 142.776 97.4361 142.076C95.6719 141.377 94.0634 140.335 92.7034 139.012C91.3434 137.688 90.2588 136.108 89.5119 134.363C88.765 132.619 88.3707 130.743 88.3517 128.846C88.3517 121.514 93.1151 116.328 101.097 114.702C109.08 113.076 117.355 109.207 122.037 102.997C123.827 108.928 124.737 115.09 124.735 121.286C124.742 124.147 124.184 126.981 123.094 129.625C122.003 132.27 120.402 134.674 118.382 136.699C116.361 138.724 113.961 140.33 111.319 141.427C108.676 142.523 105.844 143.087 102.983 143.087Z" fill="white"/>
</svg>
