<svg width="200" height="200" viewBox="0 0 200 200" fill="none" xmlns="http://www.w3.org/2000/svg">
<circle cx="100" cy="100" r="100" fill="#D12D48"/>
<path d="M150.012 54.2741C150.062 49.4334 149.344 44.6153 147.883 40C142.883 54.9838 131.447 61.4192 117.238 63.5643C111.646 61.8616 105.854 60.9018 100.012 60.7095C94.1763 60.6093 88.3713 61.5768 82.8833 63.5643C67.8673 61.4192 56.4642 54.9838 52.1578 40C50.6915 44.6144 49.9674 49.4325 50.0126 54.2741C49.8852 64.2334 52.8864 73.9817 58.5932 82.1448C52.7904 90.2547 49.7791 100.03 50.0126 109.999C49.9719 116.577 51.2374 123.097 53.7357 129.182C56.2341 135.266 59.9154 140.794 64.5665 145.445C69.2175 150.096 74.7456 153.778 80.8302 156.276C86.9148 158.774 93.4348 160.04 100.012 159.999C106.59 160.04 113.11 158.774 119.194 156.276C125.279 153.778 130.807 150.096 135.458 145.445C140.109 140.794 143.79 135.266 146.289 129.182C148.787 123.097 150.053 116.577 150.012 109.999C150.142 100.05 147.153 90.3088 141.464 82.1448C147.252 74.0234 150.251 64.2443 150.012 54.2741ZM64.3028 97.8221C64.3028 95.677 67.8673 90.6931 71.4318 90.6931L92.8833 104.967C90.722 108.548 84.3027 112.112 78.593 112.112C70.0286 112.145 64.3028 107.145 64.3028 97.8544V97.8221ZM100.012 139.112C95.0123 139.112 87.8672 133.58 83.593 125.29H117.173C112.173 133.548 105.012 139.112 100.012 139.112ZM121.448 112.145C115.738 112.145 109.302 108.58 107.157 104.999L128.593 90.7254C132.173 90.7254 135.738 95.7092 135.738 97.8544C135.738 107.145 130.012 112.145 121.448 112.145Z" fill="white"/>
</svg>
