<svg width="200" height="200" viewBox="0 0 200 200" fill="none" xmlns="http://www.w3.org/2000/svg">
<circle cx="100" cy="100" r="100" fill="#AB558C"/>
<path d="M100.992 55C74.0013 55 57.4922 72.9992 41 100.006C57.4922 126.997 73.1716 144.996 100.992 144.996C128.811 144.996 144.491 126.997 161 100.006C144.491 72.9992 127.982 55 100.992 55ZM100.992 122.51C96.5408 122.51 92.1901 121.19 88.4894 118.717C84.7888 116.244 81.9045 112.73 80.2013 108.618C78.4981 104.506 78.0525 99.9814 78.9207 95.6162C79.789 91.251 81.9323 87.2413 85.0794 84.0942C88.2265 80.9471 92.2362 78.8039 96.6014 77.9356C100.967 77.0673 105.491 77.5129 109.603 79.2161C113.715 80.9193 117.23 83.8036 119.702 87.5043C122.175 91.2049 123.495 95.5556 123.495 100.006C123.495 105.975 121.124 111.698 116.904 115.918C112.684 120.139 106.96 122.51 100.992 122.51V122.51Z" fill="white"/>
</svg>
