<svg width="200" height="200" viewBox="0 0 200 200" fill="none" xmlns="http://www.w3.org/2000/svg">
<circle cx="100" cy="100" r="100" fill="#6661AB"/>
<path d="M63.6818 47.9989L85.151 69.4681L70.1758 84.461L48.192 62.9741C45.2649 69.0513 44.3187 75.8938 45.487 82.5373C46.6552 89.1807 49.879 95.29 54.7038 100.004C59.0765 104.493 64.6733 107.597 70.7972 108.928C76.921 110.26 83.3013 109.76 89.1432 107.492L134.601 152.861C135.049 153.336 135.589 153.715 136.189 153.974C136.788 154.232 137.435 154.366 138.088 154.366C138.741 154.366 139.387 154.232 139.986 153.974C140.586 153.715 141.126 153.336 141.574 152.861L153.072 141.381C153.623 140.997 154.081 140.494 154.412 139.91C154.744 139.325 154.941 138.674 154.989 138.004C155.036 137.334 154.933 136.662 154.688 136.036C154.442 135.411 154.06 134.849 153.568 134.39L108.128 88.95C110.382 83.103 110.874 76.7239 109.543 70.6004C108.213 64.477 105.118 58.8773 100.641 54.4929C97.599 51.4653 93.9893 49.0683 90.0189 47.4393C86.0484 45.8103 81.7953 44.9814 77.5037 45.0003C72.7348 44.9987 68.0213 46.0213 63.6818 47.9989" fill="white"/>
</svg>
