<svg width="200" height="200" viewBox="0 0 200 200" fill="none" xmlns="http://www.w3.org/2000/svg">
<circle cx="100" cy="100" r="100" fill="#881177"/>
<path d="M46.6982 150.456L66.1921 138.572C67.3668 137.859 68.7163 137.472 70.0909 137.472H153.502C157.639 137.472 161 134.111 161 129.974V55.4977C161 51.3614 157.639 48 153.502 48H48.4977C44.3614 48 41 51.3614 41 55.4977V147.256C41 150.181 44.199 151.98 46.6982 150.456ZM61.4186 70.0682H140.569C142.643 70.0682 144.318 71.7427 144.318 73.8171C144.318 75.8914 142.643 77.5659 140.569 77.5659H61.4186C59.3443 77.5659 57.6698 75.8914 57.6698 73.8171C57.6698 71.7427 59.3568 70.0682 61.4186 70.0682ZM61.4186 87.975H140.569C142.643 87.975 144.318 89.6495 144.318 91.7238C144.318 93.7982 142.643 95.4727 140.569 95.4727H61.4186C59.3443 95.4727 57.6698 93.7982 57.6698 91.7238C57.6698 89.6495 59.3568 87.975 61.4186 87.975ZM61.4186 105.882H100.994C103.068 105.882 104.743 107.556 104.743 109.631C104.743 111.705 103.068 113.38 100.994 113.38H61.4186C59.3443 113.38 57.6698 111.705 57.6698 109.631C57.6698 107.556 59.3568 105.882 61.4186 105.882Z" fill="white"/>
</svg>
