<svg width="200" height="200" viewBox="0 0 200 200" fill="none" xmlns="http://www.w3.org/2000/svg">
<circle cx="100" cy="100" r="100" fill="#9C9C9D"/>
<path d="M50 137.523V150H150V137.523C150 120.882 116.676 112.512 99.9788 112.512C83.2816 112.512 50 120.882 50 137.523ZM74.9965 74.9965C74.9937 79.9437 76.4582 84.7806 79.2047 88.8955C81.9512 93.0103 85.8563 96.2181 90.4261 98.1133C94.996 100.008 100.025 100.506 104.878 99.5423C109.73 98.5789 114.188 96.198 117.687 92.7007C121.186 89.2035 123.57 84.7471 124.536 79.8951C125.502 75.0431 125.008 70.0136 123.115 65.4427C121.223 60.8718 118.017 56.9648 113.904 54.216C109.79 51.4672 104.954 50 100.007 50C93.3763 50 87.0169 52.6331 82.3269 57.3204C77.6369 62.0078 75.0002 68.3657 74.9965 74.9965Z" fill="white"/>
</svg>
