<svg width="200" height="200" viewBox="0 0 200 200" fill="none" xmlns="http://www.w3.org/2000/svg">
<circle cx="100" cy="100" r="100" fill="#EACA6C"/>
<path d="M99.9831 84.9958C97.0155 84.9958 94.1146 85.8758 91.6472 87.5245C89.1797 89.1731 87.2566 91.5165 86.121 94.2581C84.9853 96.9998 84.6882 100.017 85.2671 102.927C85.8461 105.838 87.2751 108.511 89.3735 110.61C91.4718 112.708 94.1453 114.137 97.0559 114.716C99.9664 115.295 102.983 114.998 105.725 113.862C108.467 112.726 110.81 110.803 112.459 108.336C114.107 105.868 114.987 102.968 114.987 100C114.974 96.0248 113.389 92.2162 110.578 89.4052C107.767 86.5943 103.958 85.0092 99.9831 84.9958Z" fill="white"/>
<path d="M99.9831 40C88.1169 40.0033 76.5182 43.5251 66.6535 50.1201C56.7888 56.715 49.1011 66.0869 44.5624 77.0507C40.0237 88.0146 38.838 100.078 41.155 111.716C43.472 123.354 49.1878 134.043 57.5796 142.432C65.9714 150.822 76.6624 156.535 88.3008 158.848C99.9392 161.162 112.002 159.973 122.965 155.431C133.928 150.889 143.297 143.199 149.889 133.332C156.481 123.466 160 111.866 160 100C159.955 84.0978 153.617 68.86 142.371 57.617C131.125 46.374 115.885 40.0402 99.9831 40V40ZM99.9831 137.511C95.0433 137.56 90.1432 136.624 85.5697 134.757C80.9962 132.889 76.8412 130.128 73.3481 126.635C69.8549 123.142 67.0938 118.987 65.2264 114.413C63.3589 109.84 62.4227 104.94 62.4725 100C62.425 95.0616 63.3629 90.1633 65.2313 85.5918C67.0998 81.0203 69.8613 76.8673 73.3542 73.376C76.8471 69.8847 81.0013 67.1251 85.5737 65.2587C90.146 63.3923 95.0447 62.4566 99.9831 62.5063C104.921 62.4566 109.82 63.3923 114.393 65.2587C118.965 67.1251 123.119 69.8847 126.612 73.376C130.105 76.8673 132.866 81.0203 134.735 85.5918C136.603 90.1633 137.541 95.0616 137.494 100C137.543 104.94 136.607 109.84 134.74 114.413C132.872 118.987 130.111 123.142 126.618 126.635C123.125 130.128 118.97 132.889 114.396 134.757C109.823 136.624 104.923 137.56 99.9831 137.511Z" fill="white"/>
</svg>
