<svg width="200" height="200" viewBox="0 0 200 200" fill="none" xmlns="http://www.w3.org/2000/svg">
<circle cx="100" cy="100" r="100" fill="#383839"/>
<path d="M80.3418 152.88L53 50.3633C52.9995 48.6109 53.518 46.8975 54.4901 45.4393C55.4622 43.9812 56.8443 42.8436 58.4622 42.17C60.2701 41.7864 62.1554 42.0566 63.7828 42.9325C65.4103 43.8083 66.6742 45.2331 67.3498 46.9533L70.7599 58.5721C76.2221 53.7733 85.1097 48.9901 94.6608 48.9901C108.316 48.9901 114.473 55.8255 128.823 55.8255C144.546 55.8255 149.329 52.4155 149.329 52.4155L163 100.248C163 100.248 152.77 110.494 142.494 110.494C127.465 110.494 121.987 100.248 108.316 100.248C100.123 100.248 89.1832 104.353 83.721 109.815L93.9665 149.47C94.6608 152.88 92.5932 156.969 89.1832 157.663H87.1619C85.7017 157.547 84.2993 157.042 83.1 156.201C81.9008 155.36 80.9485 154.213 80.3418 152.88Z" fill="white"/>
</svg>
