<svg width="200" height="200" viewBox="0 0 200 200" fill="none" xmlns="http://www.w3.org/2000/svg">
<circle cx="100" cy="100" r="100" fill="#6661AB"/>
<path d="M138.187 77.9064C138.171 78.8458 138.296 79.7822 138.557 80.6847L119.197 100.103C117.34 99.5912 115.379 99.5912 113.522 100.103L99.6158 86.2118C99.8806 85.2896 100.01 84.3338 100 83.3744C99.896 80.5494 98.7007 77.8747 96.6653 75.9129C94.6299 73.9511 91.9131 72.8549 89.0862 72.8549C86.2593 72.8549 83.5425 73.9511 81.5071 75.9129C79.4717 77.8747 78.2764 80.5494 78.1724 83.3744C78.1623 84.3338 78.2918 85.2896 78.5567 86.2118L53.6847 111.025C52.7843 110.753 51.8469 110.623 50.9064 110.64C48.7493 110.64 46.6407 111.28 44.8471 112.478C43.0536 113.677 41.6557 115.38 40.8302 117.373C40.0047 119.366 39.7887 121.559 40.2096 123.675C40.6304 125.79 41.6691 127.734 43.1944 129.259C44.7197 130.784 46.663 131.823 48.7787 132.244C50.8943 132.664 53.0872 132.448 55.0801 131.623C57.073 130.798 58.7763 129.4 59.9748 127.606C61.1732 125.813 61.8128 123.704 61.8128 121.547C61.8324 120.592 61.7028 119.639 61.4286 118.724L86.2414 93.8818C87.1661 94.1598 88.1281 94.2944 89.0936 94.2808C90.0494 94.2935 91.0014 94.1589 91.9163 93.8818L105.837 107.803C105.564 108.723 105.435 109.68 105.453 110.64C105.453 112.073 105.735 113.491 106.283 114.814C106.832 116.137 107.635 117.34 108.648 118.352C109.66 119.365 110.863 120.169 112.186 120.717C113.509 121.265 114.927 121.547 116.36 121.547C117.792 121.547 119.21 121.265 120.533 120.717C121.857 120.169 123.059 119.365 124.072 118.352C125.084 117.34 125.888 116.137 126.436 114.814C126.984 113.491 127.266 112.073 127.266 110.64C127.285 109.68 127.155 108.723 126.882 107.803L146.3 88.4434C147.208 88.7044 148.149 88.8289 149.094 88.8128C151.251 88.8128 153.359 88.1732 155.153 86.9748C156.946 85.7763 158.344 84.073 159.17 82.0801C159.995 80.0872 160.211 77.8943 159.79 75.7787C159.37 73.663 158.331 71.7197 156.806 70.1944C155.28 68.6691 153.337 67.6304 151.221 67.2096C149.106 66.7887 146.913 67.0047 144.92 67.8302C142.927 68.6557 141.224 70.0536 140.025 71.8471C138.827 73.6407 138.187 75.7493 138.187 77.9064Z" fill="white"/>
</svg>
