<?xml version="1.0" encoding="utf-8"?>
<svg width="200" height="200" viewBox="0 0 200 200" fill="none" xmlns="http://www.w3.org/2000/svg">
<circle cx="100" cy="100" r="100" fill="#E28850"/>
<path d="M75.3864 45.6209C72.8096 46.6332 70.5251 47.7213 68.56 48.8094C67.3744 49.4644 66.557 49.9787 66.1239 50.2765C64.2184 51.4999 63.7203 54.2824 65.0304 56.2151C66.3621 58.283 69.031 58.6998 71.0989 57.2544C71.4346 57.0054 72.0842 56.5778 73.037 56.0202C74.6393 55.089 76.5178 54.1525 78.6562 53.2809C93.4783 47.2287 111.213 47.2774 130.864 57.5359C132.84 58.6944 135.498 57.9907 136.656 55.9498C137.939 53.9197 137.084 51.305 134.789 50.022C125.678 45.2203 116.572 42.4215 107.64 41.42C104.663 41.0844 101.701 40.9544 98.7402 41.014C90.241 41.1656 82.3969 42.8762 75.381 45.6317L75.3864 45.6209ZM62.1342 69.7434C58.4855 72.7424 55.3782 75.9526 52.7959 79.1682C51.2477 81.1009 50.2137 82.6112 49.694 83.4828C48.4218 85.4262 48.9469 88.0247 50.8741 89.3348C52.8609 90.6394 55.4973 89.9736 57.0888 87.8569C57.5436 87.0828 58.3881 85.816 59.6765 84.1866C61.8256 81.4636 64.4403 78.7352 67.5206 76.1908C76.5449 68.731 87.6317 64.3461 100.884 64.5735C113.979 64.7467 124.866 69.0504 133.668 76.115C136.813 78.6431 139.471 81.3445 141.642 84.0512C142.941 85.6699 143.786 86.9204 144.197 87.6241C145.437 89.6217 148.025 90.293 150.06 89.1399C152.177 87.9489 152.772 85.3829 151.587 83.223C151.056 82.3351 150.017 80.841 148.458 78.9246C145.859 75.7415 142.719 72.5638 139.011 69.5972C128.65 61.2929 116.004 56.2367 101.019 56.0364C85.7262 55.8307 72.7771 61.006 62.1396 69.7488L62.1342 69.7434ZM70.5143 80.4891C54.5336 93.7143 48.66 115.72 57.4678 141.342C58.2148 143.578 60.6617 144.764 62.9246 144.006C65.1441 143.242 66.3513 140.768 65.5284 138.581C57.706 115.872 62.3886 98.3699 75.9873 86.9258C87.6859 77.3656 107.467 76.0068 121.504 84.6792C128.336 88.9829 134.123 96.578 137.122 104.725C139.872 112.055 139.937 119.585 137.593 123.126C135.427 126.477 130.929 127.949 126.685 126.877C122.062 125.708 119.339 122.422 119.187 116.743C119.019 107.259 111.841 100.27 102.697 99.2198C93.8518 98.1642 85.2444 103.285 83.0248 112.163C78.0715 131.197 91.7189 154.188 115.554 161.632C117.812 162.314 120.194 161.085 120.941 158.844C121.645 156.522 120.405 154.102 118.072 153.436C98.7185 147.422 87.6317 128.431 91.2967 114.166C92.4822 109.43 96.5153 107.21 101.875 107.703C107.201 108.314 110.59 111.508 110.59 116.879C110.872 126.054 116.67 133.146 124.573 135.149C132.288 137.109 140.494 134.337 144.766 127.781C149.08 121.307 148.972 112.012 145.177 101.786C141.404 91.7275 134.653 82.8819 126.019 77.4359C117.308 72.0062 107.05 69.581 96.8184 70.3064C86.9226 71.0155 77.541 74.6209 70.5197 80.4783L70.5143 80.4891ZM71.9651 101.537C65.2361 114.231 66.3567 128.09 72.8746 141.645C73.9031 143.767 75.0454 145.841 76.2851 147.855C78.2068 150.978 80.2694 153.82 82.3319 156.321C83.5716 157.826 84.5406 158.887 85.0982 159.45C86.7223 161.145 89.3965 161.166 91.1072 159.521C92.807 157.891 92.8287 155.347 91.1992 153.523C90.7066 153.019 89.8729 152.088 88.801 150.767C87.0038 148.558 85.2065 146.057 83.5283 143.318C82.4618 141.575 81.4766 139.783 80.5888 137.959C75.0616 126.558 74.1305 115.682 79.4844 105.57C85.2985 94.6671 95.8981 90.6448 106.806 93.8063C117.714 96.9949 125.136 106.268 124.979 118.259C124.709 120.592 126.436 122.66 128.839 122.796C131.216 123.007 133.213 121.155 133.408 118.486C133.738 102.69 123.572 89.8003 109.199 85.5995C105.761 84.6359 102.302 84.192 98.908 84.3057C87.6047 84.7658 77.5951 90.8181 71.9597 101.537H71.9651ZM96.0172 117.48C96.0389 118.508 96.2013 120.289 96.6398 122.568C97.3652 126.368 98.6049 130.169 100.489 133.725C100.711 134.137 100.711 134.137 100.943 134.548C106.996 144.85 118.521 150.783 134.529 149.284C136.873 149.148 138.67 147.183 138.535 144.774C138.394 142.344 136.304 140.601 133.722 140.801C120.383 142.024 112.994 138.219 108.322 130.245C108.068 129.817 107.829 129.384 107.602 128.94C106.314 126.412 105.464 123.7 104.971 120.982C104.679 119.353 104.565 118.097 104.554 117.387C104.554 115 102.633 113.1 100.196 113.1C97.8037 113.17 95.9414 115.135 96.0118 117.48H96.0172Z" fill="white"/>
</svg>
